<?xml version="1.0" encoding="utf-8"?>
<svg version="1.0" id="Layer_1" xmlns="http://www.w3.org/2000/svg" width="800px" height="800px" viewBox="0 -2.66 86.023 66.66" enable-background="new 0 0 64 64">
  <g transform="matrix(0.580354, 0, 0, 0.529822, 48.71244, -2.496988)" style="">
    <g>
      <g>
        <path fill="#506C7F" d="M50,2c-0.553,0-1,0.447-1,1v1v2v4c0,0.553,0.447,1,1,1s1-0.447,1-1V6V4V3C51,2.447,50.553,2,50,2z"/>
        <path fill="#506C7F" d="M14,2c-0.553,0-1,0.447-1,1v1v2v4c0,0.553,0.447,1,1,1s1-0.447,1-1V6V4V3C15,2.447,14.553,2,14,2z"/>
      </g>
      <path fill="#F9EBB2" d="M62,60c0,1.104-0.896,2-2,2H4c-1.104,0-2-0.896-2-2V17h60V60z"/>
      <path fill="#F76D57" d="M62,15H2V8c0-1.104,0.896-2,2-2h7v4c0,1.657,1.343,3,3,3s3-1.343,3-3V6h30v4c0,1.657,1.343,3,3,3 s3-1.343,3-3V6h7c1.104,0,2,0.896,2,2V15z"/>
      <g>
        <path fill="#394240" d="M11,54h6c0.553,0,1-0.447,1-1v-5c0-0.553-0.447-1-1-1h-6c-0.553,0-1,0.447-1,1v5 C10,53.553,10.447,54,11,54z M12,49h4v3h-4V49z"/>
        <path fill="#394240" d="M23,54h6c0.553,0,1-0.447,1-1v-5c0-0.553-0.447-1-1-1h-6c-0.553,0-1,0.447-1,1v5 C22,53.553,22.447,54,23,54z M24,49h4v3h-4V49z"/>
        <path fill="#394240" d="M35,54h6c0.553,0,1-0.447,1-1v-5c0-0.553-0.447-1-1-1h-6c-0.553,0-1,0.447-1,1v5 C34,53.553,34.447,54,35,54z M36,49h4v3h-4V49z"/>
        <path fill="#394240" d="M11,43h6c0.553,0,1-0.447,1-1v-5c0-0.553-0.447-1-1-1h-6c-0.553,0-1,0.447-1,1v5 C10,42.553,10.447,43,11,43z M12,38h4v3h-4V38z"/>
        <path fill="#394240" d="M23,43h6c0.553,0,1-0.447,1-1v-5c0-0.553-0.447-1-1-1h-6c-0.553,0-1,0.447-1,1v5 C22,42.553,22.447,43,23,43z M24,38h4v3h-4V38z"/>
        <path fill="#394240" d="M35,43h6c0.553,0,1-0.447,1-1v-5c0-0.553-0.447-1-1-1h-6c-0.553,0-1,0.447-1,1v5 C34,42.553,34.447,43,35,43z M36,38h4v3h-4V38z"/>
        <path fill="#394240" d="M47,43h6c0.553,0,1-0.447,1-1v-5c0-0.553-0.447-1-1-1h-6c-0.553,0-1,0.447-1,1v5 C46,42.553,46.447,43,47,43z M48,38h4v3h-4V38z"/>
        <path fill="#394240" d="M11,32h6c0.553,0,1-0.447,1-1v-5c0-0.553-0.447-1-1-1h-6c-0.553,0-1,0.447-1,1v5 C10,31.553,10.447,32,11,32z M12,27h4v3h-4V27z"/>
        <path fill="#394240" d="M23,32h6c0.553,0,1-0.447,1-1v-5c0-0.553-0.447-1-1-1h-6c-0.553,0-1,0.447-1,1v5 C22,31.553,22.447,32,23,32z M24,27h4v3h-4V27z"/>
        <path fill="#394240" d="M35,32h6c0.553,0,1-0.447,1-1v-5c0-0.553-0.447-1-1-1h-6c-0.553,0-1,0.447-1,1v5 C34,31.553,34.447,32,35,32z M36,27h4v3h-4V27z"/>
        <path fill="#394240" d="M47,32h6c0.553,0,1-0.447,1-1v-5c0-0.553-0.447-1-1-1h-6c-0.553,0-1,0.447-1,1v5 C46,31.553,46.447,32,47,32z M48,27h4v3h-4V27z"/>
        <path fill="#394240" d="M60,4h-7V3c0-1.657-1.343-3-3-3s-3,1.343-3,3v1H17V3c0-1.657-1.343-3-3-3s-3,1.343-3,3v1H4 C1.789,4,0,5.789,0,8v52c0,2.211,1.789,4,4,4h56c2.211,0,4-1.789,4-4V8C64,5.789,62.211,4,60,4z M49,3c0-0.553,0.447-1,1-1 s1,0.447,1,1v7c0,0.553-0.447,1-1,1s-1-0.447-1-1V3z M13,3c0-0.553,0.447-1,1-1s1,0.447,1,1v7c0,0.553-0.447,1-1,1s-1-0.447-1-1 V3z M62,60c0,1.104-0.896,2-2,2H4c-1.104,0-2-0.896-2-2V17h60V60z M62,15H2V8c0-1.104,0.896-2,2-2h7v4c0,1.657,1.343,3,3,3 s3-1.343,3-3V6h30v4c0,1.657,1.343,3,3,3s3-1.343,3-3V6h7c1.104,0,2,0.896,2,2V15z"/>
      </g>
    </g>
    <g>
      <rect x="12" y="27" fill="#B4CCB9" width="4" height="3"/>
      <rect x="24" y="27" fill="#B4CCB9" width="4" height="3"/>
      <rect x="36" y="27" fill="#B4CCB9" width="4" height="3"/>
      <rect x="48" y="27" fill="#B4CCB9" width="4" height="3"/>
      <rect x="12" y="38" fill="#B4CCB9" width="4" height="3"/>
      <rect x="24" y="38" fill="#B4CCB9" width="4" height="3"/>
      <rect x="36" y="38" fill="#B4CCB9" width="4" height="3"/>
      <rect x="48" y="38" fill="#B4CCB9" width="4" height="3"/>
      <rect x="12" y="49" fill="#B4CCB9" width="4" height="3"/>
      <rect x="24" y="49" fill="#B4CCB9" width="4" height="3"/>
      <rect x="36" y="49" fill="#B4CCB9" width="4" height="3"/>
    </g>
  </g>
  <g id="_x3C_Layer_x3E_" style="" transform="matrix(1.336149, 0, 0, 1.068856, -24.5702, 2.903539)">
    <path d="M 76.212 29.407 C 76.563 29.923 76.563 30.579 76.205 31.092 C 73.748 34.645 63.325 48.251 47.808 48.251 C 32.291 48.251 21.868 34.645 19.411 31.092 C 19.053 30.579 19.053 29.923 19.404 29.407 C 21.845 25.847 32.187 12.251 47.808 12.251 C 63.429 12.251 73.771 25.847 76.212 29.407 Z" id="XMLID_12_" style="" fill="#FFFFFF"/>
    <path d="M 47.808 48.917 C 32.148 48.917 21.693 35.564 18.863 31.472 C 18.351 30.736 18.345 29.777 18.853 29.032 C 21.661 24.937 32.044 11.584 47.808 11.584 C 63.572 11.584 73.955 24.937 76.761 29.029 L 76.763 29.031 C 77.269 29.776 77.265 30.735 76.752 31.472 C 73.923 35.564 63.468 48.917 47.808 48.917 Z M 47.808 12.917 C 32.696 12.917 22.668 25.828 19.953 29.784 C 19.759 30.071 19.759 30.427 19.957 30.711 C 22.697 34.671 32.797 47.584 47.808 47.584 C 62.819 47.584 72.919 34.671 75.657 30.712 C 75.856 30.427 75.857 30.072 75.661 29.783 C 72.947 25.825 62.92 12.917 47.808 12.917 Z" style="fill: rgb(110, 68, 7);"/>
    <circle cx="47.808" cy="30.251" id="XMLID_11_" r="14" style="fill: rgb(152, 97, 5);"/>
    <path d="M 47.808 44.917 C 39.721 44.917 33.141 38.337 33.141 30.251 C 33.141 22.164 39.721 15.584 47.808 15.584 C 55.895 15.584 62.475 22.164 62.475 30.251 C 62.475 38.337 55.895 44.917 47.808 44.917 Z M 47.808 16.917 C 40.456 16.917 34.475 22.899 34.475 30.251 C 34.475 37.603 40.456 43.584 47.808 43.584 C 55.16 43.584 61.141 37.603 61.141 30.251 C 61.141 22.899 55.16 16.917 47.808 16.917 Z" style="fill: rgb(110, 68, 7);"/>
    <path d="M 47.808 41.584 C 41.557 41.584 36.473 36.5 36.473 30.251 C 36.473 24.001 41.559 18.917 47.808 18.917 C 54.057 18.917 59.143 24.001 59.143 30.251 C 59.143 36.5 54.059 41.584 47.808 41.584 Z M 47.808 20.251 C 42.293 20.251 37.807 24.736 37.807 30.251 C 37.807 35.765 42.293 40.251 47.808 40.251 C 53.323 40.251 57.809 35.765 57.809 30.251 C 57.809 24.736 53.323 20.251 47.808 20.251 Z" style="fill: rgb(215, 116, 12);"/>
    <circle cx="47.808" cy="30.251" id="XMLID_3_" r="6" style=""/>
    <path d="M 47.808 36.917 C 44.132 36.917 41.141 33.927 41.141 30.251 C 41.141 26.575 44.132 23.584 47.808 23.584 C 51.484 23.584 54.475 26.575 54.475 30.251 C 54.475 33.927 51.484 36.917 47.808 36.917 Z M 47.808 24.917 C 44.867 24.917 42.475 27.309 42.475 30.251 C 42.475 33.192 44.867 35.584 47.808 35.584 C 50.749 35.584 53.141 33.192 53.141 30.251 C 53.141 27.309 50.749 24.917 47.808 24.917 Z" style="fill: rgb(110, 68, 7);"/>
    <circle cx="56.952" cy="39.251" id="XMLID_839_" r="3.333" style="" fill="#FFFFFF"/>
    <circle cx="40.188" cy="22.751" id="XMLID_843_" r="6" style="" fill="#FFFFFF"/>
    <path d="M 56.401 56.223 C 56.093 56.223 55.817 56.008 55.749 55.695 L 54.64 50.477 C 54.564 50.117 54.793 49.763 55.153 49.687 C 55.517 49.613 55.868 49.841 55.944 50.2 L 57.053 55.417 C 57.129 55.777 56.9 56.132 56.54 56.208 C 56.493 56.219 56.447 56.223 56.401 56.223 Z" style=""/>
    <path d="M 64.911 53.191 C 64.655 53.191 64.411 53.044 64.301 52.795 L 62.132 47.923 C 61.981 47.587 62.133 47.193 62.469 47.043 C 62.807 46.892 63.2 47.044 63.349 47.38 L 65.519 52.252 C 65.669 52.588 65.517 52.981 65.181 53.132 C 65.093 53.172 65.001 53.191 64.911 53.191 Z" style=""/>
    <path d="M 72.104 49.232 C 71.897 49.232 71.695 49.137 71.564 48.957 L 68.429 44.643 C 68.212 44.344 68.279 43.928 68.576 43.712 C 68.876 43.496 69.291 43.561 69.507 43.859 L 72.641 48.173 C 72.859 48.472 72.792 48.888 72.495 49.104 C 72.376 49.191 72.239 49.232 72.104 49.232 Z" style=""/>
    <path d="M 23.512 49.232 C 23.376 49.232 23.239 49.191 23.121 49.104 C 22.824 48.888 22.757 48.471 22.975 48.173 L 26.109 43.859 C 26.324 43.56 26.741 43.493 27.04 43.712 C 27.337 43.928 27.404 44.345 27.187 44.643 L 24.052 48.957 C 23.921 49.137 23.719 49.232 23.512 49.232 Z" style=""/>
    <path d="M 30.996 53.408 C 30.905 53.408 30.813 53.389 30.725 53.351 C 30.389 53.201 30.237 52.807 30.388 52.471 L 32.557 47.599 C 32.707 47.263 33.101 47.109 33.437 47.261 C 33.773 47.411 33.925 47.805 33.775 48.141 L 31.605 53.013 C 31.495 53.26 31.252 53.408 30.996 53.408 Z" style=""/>
    <path d="M 39.215 56.223 C 39.168 56.223 39.123 56.219 39.076 56.208 C 38.716 56.131 38.487 55.777 38.563 55.417 L 39.672 50.2 C 39.749 49.839 40.101 49.612 40.463 49.687 C 40.823 49.764 41.052 50.117 40.976 50.477 L 39.867 55.695 C 39.8 56.008 39.523 56.223 39.215 56.223 Z" style=""/>
    <path d="M 47.808 57.125 C 47.44 57.125 47.141 56.827 47.141 56.459 L 47.141 51.125 C 47.141 50.757 47.44 50.459 47.808 50.459 C 48.176 50.459 48.475 50.757 48.475 51.125 L 48.475 56.459 C 48.475 56.828 48.176 57.125 47.808 57.125 Z" style=""/>
    <path d="M 26.648 17.125 C 26.441 17.125 26.239 17.031 26.108 16.851 L 22.973 12.536 C 22.756 12.237 22.823 11.821 23.12 11.605 C 23.417 11.388 23.836 11.455 24.051 11.752 L 27.185 16.067 C 27.403 16.365 27.336 16.781 27.039 16.997 C 26.921 17.084 26.784 17.125 26.648 17.125 Z" style=""/>
    <path d="M 33.167 13.363 C 32.911 13.363 32.667 13.216 32.557 12.967 L 30.388 8.095 C 30.237 7.759 30.389 7.365 30.725 7.215 C 31.061 7.063 31.456 7.216 31.605 7.552 L 33.775 12.424 C 33.925 12.76 33.773 13.153 33.437 13.304 C 33.348 13.345 33.256 13.363 33.167 13.363 Z" style=""/>
    <path d="M 40.323 11.037 C 40.015 11.037 39.739 10.823 39.671 10.509 L 38.561 5.292 C 38.485 4.932 38.715 4.577 39.075 4.501 C 39.439 4.429 39.789 4.656 39.865 5.015 L 40.975 10.232 C 41.051 10.592 40.821 10.947 40.461 11.023 C 40.415 11.032 40.368 11.037 40.323 11.037 Z" style=""/>
    <path d="M 47.808 10.251 C 47.44 10.251 47.141 9.952 47.141 9.584 L 47.141 4.251 C 47.141 3.883 47.44 3.584 47.808 3.584 C 48.176 3.584 48.475 3.883 48.475 4.251 L 48.475 9.584 C 48.475 9.952 48.176 10.251 47.808 10.251 Z" style=""/>
  </g>
</svg>