<?xml version="1.0" encoding="UTF-8"?>
<svg version="1.1" xmlns="http://www.w3.org/2000/svg" width="72" height="72">
<path d="M0 0 C2.296875 -0.23046875 2.296875 -0.23046875 5 0 C6.703125 1.51171875 6.703125 1.51171875 8.25 3.6875 C8.83394531 4.49703125 9.41789063 5.3065625 10.01953125 6.140625 C10.67308594 7.08421875 11.32664062 8.0278125 12 9 C12.81532967 10.1413948 13.63178836 11.28198373 14.44921875 12.421875 C15.28006438 13.59274469 16.10950345 14.76461381 16.9375 15.9375 C17.33936523 16.5049292 17.74123047 17.0723584 18.15527344 17.65698242 C21 21.76500031 21 21.76500031 21 24 C21.99 24.33 22.98 24.66 24 25 C24 25.99 24 26.98 24 28 C24.66 28 25.32 28 26 28 C26.66 29.65 27.32 31.3 28 33 C29.36125 32.071875 29.36125 32.071875 30.75 31.125 C34 29 34 29 36.3125 27.9375 C38.35897871 27.04927159 38.35897871 27.04927159 39 24 C40.8125 22.46484375 40.8125 22.46484375 43 20.9375 C46.01628184 18.92046147 46.01628184 18.92046147 48 16 C48.99 16 49.98 16 51 16 C51.1546875 15.0409375 51.1546875 15.0409375 51.3125 14.0625 C51.6528125 13.0415625 51.6528125 13.0415625 52 12 C52.99 11.67 53.98 11.34 55 11 C55.804375 10.195625 56.60875 9.39125 57.4375 8.5625 C59.70392579 6.29607421 61.23173564 5.38413218 64 4 C64.33 3.01 64.66 2.02 65 1 C68.465 0.505 68.465 0.505 72 0 C72.71743504 4.1252515 72.64385963 6.02686056 70.2890625 9.5859375 C68.24270482 12.10509985 66.13091686 14.55244088 64 17 C63.34 17.99 62.68 18.98 62 20 C61.34 20 60.68 20 60 20 C59.88527344 20.58265625 59.77054688 21.1653125 59.65234375 21.765625 C58.95175938 24.16523135 58.01807405 25.72860933 56.5625 27.75 C56.13066406 28.36359375 55.69882812 28.9771875 55.25390625 29.609375 C54.84011719 30.06828125 54.42632812 30.5271875 54 31 C53.34 31 52.68 31 52 31 C52 31.99 52 32.98 52 34 C51.34 34 50.68 34 50 34 C50 34.66 50 35.32 50 36 C49.34 36 48.68 36 48 36 C47.92652344 36.53109375 47.85304687 37.0621875 47.77734375 37.609375 C46.68956324 40.95471004 44.67283612 43.48905947 42.5625 46.25 C42.15451172 46.80429687 41.74652344 47.35859375 41.32617188 47.9296875 C40.27046691 49.32810909 39.14012413 50.66950652 38 52 C37.34 52 36.68 52 36 52 C35.9175 52.55429687 35.835 53.10859375 35.75 53.6796875 C34.75727173 56.7509406 33.06443301 58.65505337 31 61.125 C28.21840292 64.37869505 28.21840292 64.37869505 26 68 C24.02 68 22.04 68 20 68 C19.2886121 65.96746314 18.57724535 63.93491888 17.8659668 61.90234375 C17.24147676 60.11836801 16.61663342 58.3345159 15.99145508 56.55078125 C14.33503477 51.82312479 12.68449314 47.09358018 11.046875 42.359375 C10.73500244 41.46057617 10.42312988 40.56177734 10.10180664 39.63574219 C9.50246661 37.9079785 8.90522245 36.17948603 8.31030273 34.45019531 C7.89953491 33.26828613 7.89953491 33.26828613 7.48046875 32.0625 C7.24223389 31.37285156 7.00399902 30.68320312 6.75854492 29.97265625 C5.96366507 27.90550813 4.99578939 25.97662002 4 24 C3.44069313 22.01135336 3.00384995 20.01759977 2.5625 18 C2.07438035 15.95821476 2.07438035 15.95821476 0.9453125 14.140625 C-0.3270199 11.2594756 -0.19312174 8.88359995 -0.125 5.75 C-0.10695312 4.67234375 -0.08890625 3.5946875 -0.0703125 2.484375 C-0.04710937 1.66453125 -0.02390625 0.8446875 0 0 Z " fill="#73BB71" transform="translate(0,4)"/>
<path d="M0 0 C1.28132813 0.00902344 2.56265625 0.01804688 3.8828125 0.02734375 C4.87023437 0.03894531 5.85765625 0.05054688 6.875 0.0625 C6.875 0.7225 6.875 1.3825 6.875 2.0625 C7.865 2.3925 8.855 2.7225 9.875 3.0625 C11.98138924 7.27527848 11.39566423 12.487675 10.875 17.0625 C9.26719246 20.89188393 6.77542236 23.24152667 3.75 26 C-0.8447681 27.69806647 -5.29984981 27.85338928 -10.125 27.0625 C-14.07049895 24.08324569 -16.83003522 20.90602987 -17.625 15.9375 C-16.94985727 10.70514382 -14.58260102 7.01276437 -11.125 3.0625 C-10.465 3.0625 -9.805 3.0625 -9.125 3.0625 C-9.125 2.4025 -9.125 1.7425 -9.125 1.0625 C-6.12186252 -0.43906874 -3.33432478 -0.03031204 0 0 Z " fill="#80C17E" transform="translate(37.125,-0.0625)"/>
<path d="M0 0 C0.71743504 4.1252515 0.64385963 6.02686056 -1.7109375 9.5859375 C-3.75729518 12.10509985 -5.86908314 14.55244088 -8 17 C-8.66 17.99 -9.32 18.98 -10 20 C-10.66 20 -11.32 20 -12 20 C-12.11472656 20.58265625 -12.22945312 21.1653125 -12.34765625 21.765625 C-13.04824062 24.16523135 -13.98192595 25.72860933 -15.4375 27.75 C-15.86933594 28.36359375 -16.30117188 28.9771875 -16.74609375 29.609375 C-17.15988281 30.06828125 -17.57367188 30.5271875 -18 31 C-18.66 31 -19.32 31 -20 31 C-20 31.99 -20 32.98 -20 34 C-20.66 34 -21.32 34 -22 34 C-22 34.66 -22 35.32 -22 36 C-22.66 36 -23.32 36 -24 36 C-24.07347656 36.53109375 -24.14695312 37.0621875 -24.22265625 37.609375 C-25.31043676 40.95471004 -27.32716388 43.48905947 -29.4375 46.25 C-29.84548828 46.80429687 -30.25347656 47.35859375 -30.67382812 47.9296875 C-31.72953309 49.32810909 -32.85987587 50.66950652 -34 52 C-34.66 52 -35.32 52 -36 52 C-36.0825 52.55429687 -36.165 53.10859375 -36.25 53.6796875 C-37.24272827 56.7509406 -38.93556699 58.65505337 -41 61.125 C-43.78159708 64.37869505 -43.78159708 64.37869505 -46 68 C-47.98 68 -49.96 68 -52 68 C-53.48320272 64.16112237 -54.22419163 61.93795909 -53 58 C-52.80664062 58.56589844 -52.61328125 59.13179687 -52.4140625 59.71484375 C-52.02347656 60.81505859 -52.02347656 60.81505859 -51.625 61.9375 C-51.36976562 62.66839844 -51.11453125 63.39929688 -50.8515625 64.15234375 C-50.14728587 66.18682116 -50.14728587 66.18682116 -48 67 C-47.7628125 66.45988281 -47.525625 65.91976562 -47.28125 65.36328125 C-45.65305817 62.36006157 -43.62624771 59.86213122 -41.5 57.1875 C-37.19651284 51.70911262 -33.2619406 46.05676137 -29.48828125 40.2019043 C-26.89856132 36.21575611 -24.0694567 32.62946085 -21 29 C-20.67 28.34 -20.34 27.68 -20 27 C-19.34 27 -18.68 27 -18 27 C-17.731875 26.443125 -17.46375 25.88625 -17.1875 25.3125 C-15.89100504 22.78774666 -14.57523677 20.36285516 -13 18 C-12.34 18 -11.68 18 -11 18 C-10.9175 17.46375 -10.835 16.9275 -10.75 16.375 C-9.73623902 13.1647569 -7.92839451 10.73707608 -6 8 C-7.98 9.32 -9.96 10.64 -12 12 C-10.99814595 9.76509481 -10.1888327 8.17430711 -8.375 6.5 C-6.54951691 4.847706 -6.54951691 4.847706 -7 1 C-4.53721199 -0.231394 -2.7204945 -0.07159196 0 0 Z " fill="#C1E0C0" transform="translate(72,4)"/>
<path d="M0 0 C0.33 0 0.66 0 1 0 C2.11165232 4.4378561 2.11527763 8.76956386 2.0625 13.3125 C2.05798828 14.05306641 2.05347656 14.79363281 2.04882812 15.55664062 C2.03712175 17.37112899 2.01918898 19.18557534 2 21 C4.97 20.01 7.94 19.02 11 18 C9.24630662 20.36367369 7.77137789 21.78125104 4.90625 22.59375 C1.07751865 23.15529726 -1.32925725 23.28542245 -4.9375 21.75 C-8.12681303 19.04391621 -8.95595775 17.44042254 -9.375 13.25 C-9.25311972 8.54019766 -7.7758313 5.77821482 -5 2 C-2.8125 1.125 -2.8125 1.125 -1 1 C-0.67 0.67 -0.34 0.34 0 0 Z " fill="#67B564" transform="translate(31,3)"/>
<path d="M0 0 C1.28132813 0.00902344 2.56265625 0.01804688 3.8828125 0.02734375 C4.87023437 0.03894531 5.85765625 0.05054688 6.875 0.0625 C6.875 0.7225 6.875 1.3825 6.875 2.0625 C7.865 2.3925 8.855 2.7225 9.875 3.0625 C11.98138924 7.27527848 11.39566423 12.487675 10.875 17.0625 C9.26719246 20.89188393 6.77542236 23.24152667 3.75 26 C-0.8447681 27.69806647 -5.29984981 27.85338928 -10.125 27.0625 C-14.07049895 24.08324569 -16.83003522 20.90602987 -17.625 15.9375 C-16.94985727 10.70514382 -14.58260102 7.01276437 -11.125 3.0625 C-10.465 3.0625 -9.805 3.0625 -9.125 3.0625 C-9.125 2.4025 -9.125 1.7425 -9.125 1.0625 C-6.12186252 -0.43906874 -3.33432478 -0.03031204 0 0 Z M-12.125 6.0625 C-15.38022411 10.78782532 -15.83160561 14.4979808 -15.125 20.0625 C-12.94925584 22.75355198 -11.21434144 24.51782928 -8.125 26.0625 C-2.98111283 26.02207653 1.92457604 25.56144694 5.875 22.0625 C8.83286799 17.66461733 10.80892898 13.43259163 9.875 8.0625 C7.5991177 3.83768254 7.5991177 3.83768254 3.875 1.0625 C-2.80115126 0.11070654 -7.37538655 1.18417074 -12.125 6.0625 Z " fill="#B4D9B3" transform="translate(37.125,-0.0625)"/>
<path d="M0 0 C3.5523619 0.24972667 4.77407878 0.75796961 7.24609375 3.40625 C7.96925781 4.4271875 8.69242188 5.448125 9.4375 6.5 C9.82220459 7.03737793 10.20690918 7.57475586 10.60327148 8.12841797 C11.75075245 9.74154685 12.87564329 11.37066905 14 13 C14.63164062 13.89976563 15.26328125 14.79953125 15.9140625 15.7265625 C20 21.67150474 20 21.67150474 20 24 C20.99 24.33 21.98 24.66 23 25 C23 25.99 23 26.98 23 28 C23.66 28 24.32 28 25 28 C25.66 29.65 26.32 31.3 27 33 C28.36125 32.071875 28.36125 32.071875 29.75 31.125 C33 29 33 29 35.3125 27.9375 C37.35897871 27.04927159 37.35897871 27.04927159 38 24 C39.8125 22.46484375 39.8125 22.46484375 42 20.9375 C45.01628184 18.92046147 45.01628184 18.92046147 47 16 C47.99 16.33 48.98 16.66 50 17 C46.20808783 20.52391236 42.40557324 24.03558527 38.58984375 27.53369141 C37.28879991 28.73364062 36.00171674 29.94871097 34.71875 31.16796875 C30.57731784 34.99152783 30.57731784 34.99152783 28.13671875 35.02734375 C24.82211441 33.43366744 23.00678924 30.64088333 20.875 27.75 C20.43285156 27.17636719 19.99070312 26.60273438 19.53515625 26.01171875 C17.12294739 22.81244476 15.27295802 19.80457117 14 16 C13.34 16 12.68 16 12 16 C10.82881699 14.31550252 9.73757338 12.57504001 8.6875 10.8125 C6.1105713 6.62903417 3.68131852 3.23509809 0 0 Z " fill="#BBDDB9" transform="translate(1,4)"/>
<path d="M0 0 C4.00996273 0.18227103 5.59098778 0.58050029 8.4375 3.5 C10.43121324 7.96591765 10.26590382 11.31972179 9 16 C8.34 16.99 7.68 17.98 7 19 C4.375 19.1875 4.375 19.1875 2 19 C1.93941406 17.87980469 1.87882812 16.75960938 1.81640625 15.60546875 C1.73198576 14.13280016 1.64733851 12.66014456 1.5625 11.1875 C1.52318359 10.44951172 1.48386719 9.71152344 1.44335938 8.95117188 C1.25618965 5.76928658 1.01279207 3.03837622 0 0 Z " fill="#99CD97" transform="translate(37,1)"/>
<path d="M0 0 C2.58548628 2.58548628 2.97641847 4.29538385 3.09765625 7.91796875 C3.08605469 8.99691406 3.07445312 10.07585938 3.0625 11.1875 C3.05347656 12.27417969 3.04445313 13.36085938 3.03515625 14.48046875 C3.02355469 15.31191406 3.01195312 16.14335937 3 17 C7.97093824 16.58846263 12.44508386 16.20399168 17 14 C15.24630662 16.36367369 13.77137789 17.78125104 10.90625 18.59375 C7.07751865 19.15529726 4.67074275 19.28542245 1.0625 17.75 C-1 16 -1 16 -3 13 C-3.43762929 7.5733968 -3.36889008 4.49185344 0 0 Z " fill="#54AB51" transform="translate(25,7)"/>
<path d="M0 0 C0 2.31 0 4.62 0 7 C-0.66 6.67 -1.32 6.34 -2 6 C-3.32 7.32 -4.64 8.64 -6 10 C-6 9.34 -6 8.68 -6 8 C-7.98 9.32 -9.96 10.64 -12 12 C-10.99814595 9.76509481 -10.1888327 8.17430711 -8.375 6.5 C-6.54951691 4.847706 -6.54951691 4.847706 -7 1 C-4.53721199 -0.231394 -2.7204945 -0.07159196 0 0 Z " fill="#B1D8B0" transform="translate(72,4)"/>
<path d="M0 0 C0.99 0.33 1.98 0.66 3 1 C-1.3199895 5.01466694 -5.65339511 9.01416998 -10 13 C-11.14662109 14.05574219 -11.14662109 14.05574219 -12.31640625 15.1328125 C-16.64130435 19 -16.64130435 19 -20 19 C-20 18.34 -20 17.68 -20 17 C-17.31735111 15.04898262 -14.70515533 13.32399029 -11.6875 11.9375 C-9.64102129 11.04927159 -9.64102129 11.04927159 -9 8 C-7.1875 6.46484375 -7.1875 6.46484375 -5 4.9375 C-1.98371816 2.92046147 -1.98371816 2.92046147 0 0 Z " fill="#B2D8B1" transform="translate(48,20)"/>
<path d="M0 0 C2 2 2 2 3 5.0625 C3.65752556 8.12150806 3.65752556 8.12150806 6 9 C6.268125 8.4225 6.53625 7.845 6.8125 7.25 C8.01719859 4.9674132 9.40798115 3.0262058 11 1 C11.99 1.33 12.98 1.66 14 2 C12.19511787 4.86733048 10.3682433 7.56775013 8 10 C4.625 10.5 4.625 10.5 2 10 C0.68373308 6.38026598 0 3.90432869 0 0 Z " fill="#B4DAB3" transform="translate(18,62)"/>
<path d="M0 0 C3.08342869 2.55180305 4.01684785 5.24532778 5.25 9 C5.60578125 10.051875 5.9615625 11.10375 6.328125 12.1875 C7 15 7 15 6 18 C3.1248748 12.09622349 1.16194152 6.46712188 0 0 Z " fill="#4EA84B" transform="translate(12,41)"/>
<path d="M0 0 C0.33 1.32 0.66 2.64 1 4 C0.34 4 -0.32 4 -1 4 C-1.0825 4.5775 -1.165 5.155 -1.25 5.75 C-2.20531013 8.6159304 -3.78469173 9.9990764 -6 12 C-6 6.63590158 -3.73391546 3.73391546 0 0 Z " fill="#B5DAB3" transform="translate(49,36)"/>
<path d="M0 0 C0.66 0 1.32 0 2 0 C1.49445676 4.42350331 0.04984798 6.78071602 -3 10 C-7.34482759 13 -7.34482759 13 -10 13 C-10 12.34 -10 11.68 -10 11 C-5.61538462 8 -5.61538462 8 -3 8 C-1.92474806 5.34771188 -0.90543849 2.71631546 0 0 Z " fill="#BDDDBC" transform="translate(46,14)"/>
<path d="M0 0 C0.66 0.33 1.32 0.66 2 1 C-6.261959 9.6309795 -6.261959 9.6309795 -11 12 C-10.6875 10.0625 -10.6875 10.0625 -10 8 C-9.01 7.67 -8.02 7.34 -7 7 C-5.29220027 5.37550757 -3.62449243 3.70779973 -2 2 C-1.34 1.34 -0.68 0.68 0 0 Z " fill="#BEDDBD" transform="translate(62,8)"/>
<path d="M0 0 C3.55420724 0.29618394 4.80337043 0.80337043 7.375 3.375 C8.179375 4.674375 8.179375 4.674375 9 6 C8.67 6.99 8.34 7.98 8 9 C7.59007812 8.51789062 7.18015625 8.03578125 6.7578125 7.5390625 C5.94957031 6.59160156 5.94957031 6.59160156 5.125 5.625 C4.59132813 4.99851562 4.05765625 4.37203125 3.5078125 3.7265625 C2.38567993 2.44163349 1.20628025 1.20628025 0 0 Z " fill="#C4E1C3" transform="translate(1,4)"/>
<path d="M0 0 C2.12508244 3.18762365 2.5020163 5.26512223 3 9 C3.66 9 4.32 9 5 9 C5 9.99 5 10.98 5 12 C4.01 11.67 3.02 11.34 2 11 C0.37676246 7.24092359 -0.23994929 4.07913787 0 0 Z " fill="#4AA547" transform="translate(19,59)"/>
<path d="M0 0 C0.33 0.99 0.66 1.98 1 3 C-0.21484375 5.04296875 -0.21484375 5.04296875 -1.9375 7.1875 C-2.50339844 7.90292969 -3.06929688 8.61835938 -3.65234375 9.35546875 C-4.09707031 9.89816406 -4.54179688 10.44085938 -5 11 C-5.66 10.67 -6.32 10.34 -7 10 C-3.535 5.05 -3.535 5.05 0 0 Z " fill="#D0E7CF" transform="translate(70,9)"/>
<path d="M0 0 C0.66 0 1.32 0 2 0 C2.66 2.64 3.32 5.28 4 8 C3.01 7.67 2.02 7.34 1 7 C0.67 4.69 0.34 2.38 0 0 Z " fill="#45A442" transform="translate(23,16)"/>
</svg>
