<?xml version="1.0" ?>
<!-- Uploaded to: SVG Repo, www.svgrepo.com, Generator: SVG Repo Mixer Tools -->
<svg width="800px" height="800px" viewBox="0 0 512 512" id="Layer_1" version="1.1" xml:space="preserve" xmlns="http://www.w3.org/2000/svg" xmlns:xlink="http://www.w3.org/1999/xlink">
<style type="text/css">
	.st0{fill:#6040EC;}
	.st1{fill:#0BDC49;}
</style>
<g>
<g>
<path class="st0" d="M445.8,66H66.2c-6.6,0-12-5.4-12-12s5.4-12,12-12h379.5c6.6,0,12,5.4,12,12S452.4,66,445.8,66z"/>
</g>
<path class="st1" d="M368.5,208.6l-97.8-85.8c-8.4-7.4-21-7.4-29.4,0l-97.8,85.8c-5,4.4-5.5,12-1.1,16.9c4.4,5,12,5.5,16.9,1.1   l84.6-74.3V458c0,6.6,5.4,12,12,12s12-5.4,12-12V152.3l84.6,74.3c2.3,2,5.1,3,7.9,3c3.3,0,6.7-1.4,9-4.1   C373.9,220.5,373.4,212.9,368.5,208.6z"/>
</g>
</svg>