<?xml version="1.0" encoding="utf-8"?>
<svg version="1.1" id="Layer_1" xmlns="http://www.w3.org/2000/svg" viewBox="0 0 469.333 469.333">
  <path style="fill: rgba(255, 255, 255, 0.737);" d="M309.333,352h-256c-23.563,0-42.667-19.104-42.667-42.667V96c0-23.563,19.104-42.667,42.667-42.667 h256C332.896,53.333,352,72.437,352,96v213.333C352,332.896,332.896,352,309.333,352z"/>
  <circle style="fill: rgb(255, 255, 255);" cx="181.333" cy="202.667" r="85.333"/>
  <g>
    <rect x="416" y="96" style="fill:#FFFFFF;" width="42.667" height="362.667"/>
    <rect x="352" y="96" style="fill:#FFFFFF;" width="64" height="42.667"/>
    <rect x="352" y="266.667" style="fill:#FFFFFF;" width="64" height="42.667"/>
  </g>
  <path d="M181.333,298.667c-52.928,0-96-43.061-96-96s43.072-96,96-96s96,43.061,96,96S234.261,298.667,181.333,298.667z M181.333,128c-41.173,0-74.667,33.504-74.667,74.667s33.493,74.667,74.667,74.667S256,243.829,256,202.667S222.507,128,181.333,128 z" style="fill: rgb(0, 90, 255);"/>
  <path style="fill: rgb(241, 94, 94);" d="M213.333,186.667h-16v-16c0-8.843-7.157-16-16-16c-8.843,0-16,7.157-16,16v16h-16 c-8.843,0-16,7.157-16,16s7.157,16,16,16h16v16c0,8.843,7.157,16,16,16c8.843,0,16-7.157,16-16v-16h16c8.843,0,16-7.157,16-16 S222.176,186.667,213.333,186.667z"/>
  <path style="fill: rgb(255, 255, 255);" d="M458.667,96H416V32c0-11.787,9.547-21.333,21.333-21.333l0,0c11.787,0,21.333,9.547,21.333,21.333V96 z"/>
  <path d="M 437.301 0 C 419.659 0 405.304 14.357 405.304 32 L 405.304 85.333 L 361.562 85.333 C 356.603 61.024 335.058 42.666 309.31 42.666 L 53.329 42.666 C 23.923 42.667 0 66.592 0 96 L 0 309.333 C 0 338.741 23.923 362.666 53.329 362.666 L 309.31 362.666 C 335.058 362.666 356.603 344.309 361.562 319.999 L 405.304 319.999 L 405.304 458.666 C 405.304 464.565 410.07 469.333 415.97 469.333 L 458.634 469.333 C 464.533 469.333 469.3 464.565 469.3 458.666 L 469.3 32 C 469.299 14.357 454.943 0 437.301 0 Z M 426.635 32 C 426.635 26.112 431.415 21.333 437.302 21.333 C 443.189 21.333 447.968 26.112 447.968 32 L 447.968 85.333 L 426.635 85.333 L 426.635 32 Z M 362.64 149.333 L 405.305 149.333 L 405.305 256 L 362.64 256 L 362.64 149.333 Z M 405.304 128 L 362.639 128 L 362.639 106.667 L 405.304 106.667 L 405.304 128 Z M 309.31 341.333 L 53.329 341.333 C 35.688 341.333 21.331 326.976 21.331 309.333 L 21.331 96 C 21.331 78.357 35.688 64 53.329 64 L 309.31 64 C 326.952 64 341.309 78.357 341.309 96 L 341.309 138.667 L 341.309 266.667 L 341.309 309.334 C 341.309 326.976 326.952 341.333 309.31 341.333 Z M 362.64 298.667 L 362.64 277.334 L 405.305 277.334 L 405.305 298.667 L 362.64 298.667 Z M 447.968 448 L 426.635 448 L 426.635 309.333 L 426.635 266.666 L 426.635 138.666 L 426.635 106.666 L 447.968 106.666 L 447.968 448 Z" style=""/>
</svg>