<?xml version="1.0" ?>
<!-- Uploaded to: SVG Repo, www.svgrepo.com, Generator: SVG Repo Mixer Tools -->
<svg width="800px" height="800px" viewBox="0 0 512 512" id="Layer_1" version="1.1" xml:space="preserve" xmlns="http://www.w3.org/2000/svg" xmlns:xlink="http://www.w3.org/1999/xlink">
<style type="text/css">
	.st0{fill:#6040EC;}
	.st1{fill:#0BDC49;}
</style>
<g>
<g>
<path class="st0" d="M445.8,470H66.2c-6.6,0-12-5.4-12-12s5.4-12,12-12h379.5c6.6,0,12,5.4,12,12S452.4,470,445.8,470z"/>
</g>
<path class="st1" d="M369.6,286.5c-4.4-5-12-5.5-16.9-1.1L268,359.7V54c0-6.6-5.4-12-12-12s-12,5.4-12,12v305.7l-84.6-74.3   c-5-4.4-12.6-3.9-16.9,1.1s-3.9,12.6,1.1,16.9l97.8,85.8c4.2,3.7,9.4,5.5,14.7,5.5c5.2,0,10.5-1.8,14.7-5.5l97.8-85.8   C373.4,299.1,373.9,291.5,369.6,286.5z"/>
</g>
</svg>