<?xml version="1.0" encoding="utf-8"?>
<svg width="800px" height="800px" viewBox="0 0 2050 2050" data-name="Layer 2" id="Layer_2" xmlns="http://www.w3.org/2000/svg">
  <defs>
    <style>.cls-1{fill:#67baeb;}.cls-2{fill:#46a1f8;}.cls-3{fill:#323150;}.cls-4{fill:#83d0fb;}.cls-5{fill:#de3226;}.cls-6{fill:#b11a31;}.cls-7{fill:#f44533;}.cls-8{fill:#f4c23f;}.cls-9{fill:#f4a93f;}.cls-10{fill:#4d4c78;}.cls-11{fill:#64639c;}.cls-12{fill:#fad564;}</style>
  </defs>
  <title/>
  <path class="cls-1" d="M 1020.79 1794.67 C 941.179 1794.67 876.627 1744.77 876.566 1683.16 L 876.566 1177.47 C 978.307 1218.88 1077.34 1133.35 1164.89 1177.47 L 1164.89 1683.16 C 1164.89 1744.75 1100.37 1794.67 1020.79 1794.67 Z" style=""/>
  <path class="cls-2" d="M 1086.36 1757.44 C 1006.75 1757.44 942.202 1707.54 942.14 1645.93 L 942.14 1189.15 C 920.509 1189.41 898.536 1186.45 876.566 1177.47 L 876.566 1683.16 C 876.627 1744.77 941.179 1794.67 1020.79 1794.67 C 1065.67 1794.71 1108.01 1778.52 1135.26 1750.9 C 1119.57 1755.27 1103.03 1757.49 1086.36 1757.44 Z" style=""/>
  <path class="cls-3" d="M 1025.51 1825.8 C 931.437 1825.8 854.933 1766.6 854.933 1693.8 L 854.933 664.282 C 854.87 654.632 864.995 646.796 877.468 646.844 L 1173.56 646.844 C 1186.04 646.796 1196.16 654.632 1196.1 664.282 L 1196.1 1693.8 C 1196.1 1766.6 1119.6 1825.8 1025.51 1825.8 Z M 900.002 681.719 L 900.002 1693.8 C 900.002 1768.57 1004.6 1815.3 1088.28 1777.91 C 1127.11 1760.56 1151.03 1728.5 1151.03 1693.8 L 1151.03 681.719 L 900.002 681.719 Z" style=""/>
  <path class="cls-3" d="M 1210.52 681.719 L 840.511 681.719 C 790.292 681.719 758.905 639.651 784.015 605.996 C 795.668 590.377 817.205 580.755 840.511 580.755 L 1210.52 580.755 C 1260.74 580.755 1292.13 622.824 1267.02 656.478 C 1255.36 672.098 1233.82 681.719 1210.52 681.719 Z M 840.511 615.631 C 824.986 615.631 815.282 628.636 823.046 639.041 C 826.647 643.87 833.306 646.844 840.511 646.844 L 1210.52 646.844 C 1226.05 646.844 1235.75 633.839 1227.99 623.434 C 1224.38 618.605 1217.72 615.631 1210.52 615.631 L 840.511 615.631 Z" style=""/>
  <path class="cls-3" d="M 1163.65 804.131 L 1085.68 804.131 C 1068.33 804.131 1057.49 789.6 1066.17 777.975 C 1070.19 772.58 1077.63 769.256 1085.68 769.256 L 1163.65 769.256 C 1181.01 769.256 1191.84 783.788 1183.17 795.412 C 1179.15 800.808 1171.69 804.131 1163.65 804.131 Z" style=""/>
  <path class="cls-3" d="M 1163.65 954.008 L 1085.68 954.008 C 1068.33 954.008 1057.49 939.477 1066.17 927.851 C 1070.19 922.456 1077.63 919.132 1085.68 919.132 L 1163.65 919.132 C 1181.01 919.132 1191.84 933.664 1183.17 945.289 C 1179.15 950.684 1171.69 954.008 1163.65 954.008 Z" style=""/>
  <path class="cls-3" d="M 1163.65 1103.88 L 1085.68 1103.88 C 1068.33 1103.88 1057.49 1089.35 1066.17 1077.73 C 1070.19 1072.33 1077.63 1069.01 1085.68 1069.01 L 1163.65 1069.01 C 1181.01 1069.01 1191.84 1083.54 1183.17 1095.16 C 1179.15 1100.56 1171.69 1103.88 1163.65 1103.88 Z" style=""/>
  <path class="cls-3" d="M 1163.65 1253.76 L 1085.68 1253.76 C 1068.33 1253.76 1057.49 1239.23 1066.17 1227.6 C 1070.19 1222.21 1077.63 1218.88 1085.68 1218.88 L 1163.65 1218.88 C 1181.01 1218.88 1191.84 1233.42 1183.17 1245.04 C 1179.15 1250.43 1171.69 1253.76 1163.65 1253.76 Z" style=""/>
  <path class="cls-3" d="M 1163.65 1403.63 L 1085.68 1403.63 C 1068.33 1403.63 1057.49 1389.11 1066.17 1377.48 C 1070.19 1372.09 1077.63 1368.76 1085.68 1368.76 L 1163.65 1368.76 C 1181.01 1368.76 1191.84 1383.29 1183.17 1394.91 C 1179.15 1400.31 1171.69 1403.63 1163.65 1403.63 Z" style=""/>
  <path class="cls-3" d="M 1163.65 1553.42 L 1085.68 1553.42 C 1068.33 1553.42 1057.49 1538.9 1066.17 1527.27 C 1070.19 1521.88 1077.63 1518.55 1085.68 1518.55 L 1163.65 1518.55 C 1181.01 1518.55 1191.84 1533.08 1183.17 1544.7 C 1179.15 1550.1 1171.69 1553.42 1163.65 1553.42 Z" style=""/>
  <path class="cls-3" d="M 1163.65 1703.3 L 1085.68 1703.3 C 1068.33 1703.3 1057.49 1688.77 1066.17 1677.14 C 1070.19 1671.75 1077.63 1668.42 1085.68 1668.42 L 1163.65 1668.42 C 1181.01 1668.42 1191.84 1682.96 1183.17 1694.58 C 1179.15 1699.98 1171.69 1703.3 1163.65 1703.3 Z" style=""/>
  <circle class="cls-2" cx="911.279" cy="1510.06" r="19.3" style="" transform="matrix(1.126704, 0, 0, 0.871881, 0.91496, 261.24231)"/>
  <circle class="cls-2" cx="877.379" cy="1324.86" r="14.6" style="" transform="matrix(1.126704, 0, 0, 0.871881, 0.91496, 261.24231)"/>
  <circle class="cls-2" cx="959.179" cy="1219.76" r="28.7" style="" transform="matrix(1.126704, 0, 0, 0.871881, 0.91496, 261.24231)"/>
  <circle class="cls-4" cx="917.879" cy="1158.76" r="12.7" style="" transform="matrix(1.126704, 0, 0, 0.871881, 0.91496, 261.24231)"/>
  <circle class="cls-4" cx="954.079" cy="1391.46" r="23.5" style="" transform="matrix(1.126704, 0, 0, 0.871881, 0.91496, 261.24231)"/>
  <circle class="cls-4" cx="878.779" cy="1412.96" r="8.1" style="" transform="matrix(1.126704, 0, 0, 0.871881, 0.91496, 261.24231)"/>
  <circle class="cls-4" cx="874.879" cy="1632.16" r="12.1" style="" transform="matrix(1.126704, 0, 0, 0.871881, 0.91496, 261.24231)"/>
  <path class="cls-5" d="M 481.882 1794.67 C 402.294 1794.67 337.776 1744.75 337.776 1683.16 L 337.776 1177.47 C 439.518 1218.88 538.441 1133.35 626.1 1177.47 L 626.1 1683.16 C 626.036 1744.77 561.487 1794.67 481.882 1794.67 Z" style=""/>
  <path class="cls-6" d="M 547.456 1757.44 C 467.868 1757.44 403.35 1707.52 403.35 1645.93 L 403.35 1189.15 C 381.605 1189.41 359.747 1186.45 337.776 1177.47 L 337.776 1683.16 C 337.776 1744.75 402.294 1794.67 481.882 1794.67 C 526.808 1794.71 569.187 1778.53 596.468 1750.9 C 580.743 1755.27 564.16 1757.49 547.456 1757.44 Z" style=""/>
  <path class="cls-3" d="M 486.727 1825.8 C 392.646 1825.8 316.03 1766.6 316.03 1693.8 L 316.03 664.282 C 316.03 654.652 326.119 646.844 338.564 646.844 L 634.775 646.844 C 647.22 646.844 657.309 654.652 657.309 664.282 L 657.309 1693.8 C 657.309 1766.6 580.693 1825.8 486.727 1825.8 Z M 361.099 681.719 L 361.099 1693.8 C 361.099 1747.33 417.434 1790.92 486.727 1790.92 C 555.995 1790.83 612.118 1747.4 612.242 1693.8 L 612.242 681.719 L 361.099 681.719 Z" style=""/>
  <path class="cls-3" d="M 671.619 681.719 L 301.721 681.719 C 251.502 681.719 220.115 639.651 245.225 605.996 C 256.879 590.377 278.415 580.755 301.721 580.755 L 671.619 580.755 C 721.837 580.755 753.223 622.824 728.115 656.478 C 716.46 672.098 694.924 681.719 671.619 681.719 Z M 301.721 615.631 C 286.196 615.631 276.492 628.636 284.254 639.041 C 287.858 643.87 294.516 646.844 301.721 646.844 L 671.619 646.844 C 687.144 646.844 696.847 633.839 689.085 623.434 C 685.481 618.605 678.823 615.631 671.619 615.631 L 301.721 615.631 Z" style=""/>
  <path class="cls-3" d="M 624.86 804.131 L 546.892 804.131 C 529.546 804.131 518.702 789.6 527.377 777.975 C 531.403 772.58 538.84 769.256 546.892 769.256 L 624.86 769.256 C 642.207 769.256 653.048 783.788 644.375 795.412 C 640.35 800.808 632.91 804.131 624.86 804.131 Z" style=""/>
  <path class="cls-3" d="M 624.86 954.008 L 546.892 954.008 C 529.546 954.008 518.702 939.477 527.377 927.851 C 531.403 922.456 538.84 919.132 546.892 919.132 L 624.86 919.132 C 642.207 919.132 653.048 933.664 644.375 945.289 C 640.35 950.684 632.91 954.008 624.86 954.008 Z" style=""/>
  <path class="cls-3" d="M 624.86 1103.88 L 546.892 1103.88 C 529.546 1103.88 518.702 1089.35 527.377 1077.73 C 531.403 1072.33 538.84 1069.01 546.892 1069.01 L 624.86 1069.01 C 642.207 1069.01 653.048 1083.54 644.375 1095.16 C 640.35 1100.56 632.91 1103.88 624.86 1103.88 Z" style=""/>
  <path class="cls-3" d="M 624.86 1253.76 L 546.892 1253.76 C 529.546 1253.76 518.702 1239.23 527.377 1227.6 C 531.403 1222.21 538.84 1218.88 546.892 1218.88 L 624.86 1218.88 C 642.207 1218.88 653.048 1233.42 644.375 1245.04 C 640.35 1250.43 632.91 1253.76 624.86 1253.76 Z" style=""/>
  <path class="cls-3" d="M 624.86 1403.63 L 546.892 1403.63 C 529.546 1403.63 518.702 1389.11 527.377 1377.48 C 531.403 1372.09 538.84 1368.76 546.892 1368.76 L 624.86 1368.76 C 642.207 1368.76 653.048 1383.29 644.375 1394.91 C 640.35 1400.31 632.91 1403.63 624.86 1403.63 Z" style=""/>
  <path class="cls-3" d="M 624.86 1553.42 L 546.892 1553.42 C 529.546 1553.42 518.702 1538.9 527.377 1527.27 C 531.403 1521.88 538.84 1518.55 546.892 1518.55 L 624.86 1518.55 C 642.207 1518.55 653.048 1533.08 644.375 1544.7 C 640.35 1550.1 632.91 1553.42 624.86 1553.42 Z" style=""/>
  <path class="cls-3" d="M 624.86 1703.3 L 546.892 1703.3 C 529.546 1703.3 518.702 1688.77 527.377 1677.14 C 531.403 1671.75 538.84 1668.42 546.892 1668.42 L 624.86 1668.42 C 642.207 1668.42 653.048 1682.96 644.375 1694.58 C 640.35 1699.98 632.91 1703.3 624.86 1703.3 Z" style=""/>
  <circle class="cls-6" cx="433.079" cy="1510.06" r="19.3" style="" transform="matrix(1.126704, 0, 0, 0.871881, 0.91496, 261.24231)"/>
  <circle class="cls-6" cx="399.179" cy="1324.86" r="14.6" style="" transform="matrix(1.126704, 0, 0, 0.871881, 0.91496, 261.24231)"/>
  <circle class="cls-6" cx="480.979" cy="1219.76" r="28.7" style="" transform="matrix(1.126704, 0, 0, 0.871881, 0.91496, 261.24231)"/>
  <circle class="cls-7" cx="439.579" cy="1158.76" r="12.7" style="" transform="matrix(1.126704, 0, 0, 0.871881, 0.91496, 261.24231)"/>
  <circle class="cls-7" cx="475.879" cy="1391.46" r="23.5" style="" transform="matrix(1.126704, 0, 0, 0.871881, 0.91496, 261.24231)"/>
  <circle class="cls-7" cx="400.579" cy="1412.96" r="8.1" style="" transform="matrix(1.126704, 0, 0, 0.871881, 0.91496, 261.24231)"/>
  <circle class="cls-7" cx="396.579" cy="1632.16" r="12.1" style="" transform="matrix(1.126704, 0, 0, 0.871881, 0.91496, 261.24231)"/>
  <path class="cls-8" d="M 1559.57 1794.67 C 1479.97 1794.67 1415.41 1744.77 1415.36 1683.16 L 1415.36 1177.47 C 1517.1 1218.88 1616.14 1133.35 1703.79 1177.47 L 1703.79 1683.16 C 1703.73 1744.77 1639.18 1794.67 1559.57 1794.67 Z" style=""/>
  <path class="cls-9" d="M 1625.15 1757.44 C 1545.54 1757.44 1480.99 1707.54 1480.93 1645.93 L 1480.93 1189.15 C 1459.3 1189.41 1437.44 1186.45 1415.36 1177.47 L 1415.36 1683.16 C 1415.41 1744.77 1479.97 1794.67 1559.57 1794.67 C 1604.5 1794.71 1646.87 1778.53 1674.16 1750.9 C 1658.43 1755.27 1641.85 1757.49 1625.15 1757.44 Z" style=""/>
  <path class="cls-3" d="M 1564.31 1825.8 C 1470.23 1825.8 1393.72 1766.6 1393.72 1693.8 L 1393.72 664.282 C 1393.72 654.652 1403.81 646.844 1416.27 646.844 L 1712.35 646.844 C 1724.83 646.796 1734.95 654.632 1734.9 664.282 L 1734.9 1693.8 C 1734.9 1766.6 1658.39 1825.8 1564.31 1825.8 Z M 1438.79 681.719 L 1438.79 1693.8 C 1438.79 1768.57 1543.38 1815.3 1627.06 1777.91 C 1665.91 1760.56 1689.82 1728.5 1689.82 1693.8 L 1689.82 681.719 L 1438.79 681.719 Z" style=""/>
  <path class="cls-3" d="M 1749.31 681.719 L 1379.41 681.719 C 1329.2 681.719 1297.8 639.651 1322.92 605.996 C 1334.57 590.377 1356.11 580.755 1379.41 580.755 L 1749.31 580.755 C 1799.52 580.755 1830.92 622.824 1805.8 656.478 C 1794.15 672.098 1772.61 681.719 1749.31 681.719 Z M 1379.41 615.631 C 1363.9 615.631 1354.18 628.636 1361.95 639.041 C 1365.55 643.87 1372.21 646.844 1379.41 646.844 L 1749.31 646.844 C 1764.84 646.844 1774.54 633.839 1766.77 623.434 C 1763.17 618.605 1756.51 615.631 1749.31 615.631 L 1379.41 615.631 Z" style=""/>
  <path class="cls-3" d="M 1702.55 804.131 L 1624.48 804.131 C 1607.12 804.131 1596.29 789.6 1604.96 777.975 C 1608.97 772.58 1616.42 769.256 1624.48 769.256 L 1702.55 769.256 C 1719.9 769.256 1730.74 783.788 1722.07 795.412 C 1718.04 800.808 1710.6 804.131 1702.55 804.131 Z" style=""/>
  <path class="cls-3" d="M 1702.55 954.008 L 1624.48 954.008 C 1607.12 954.008 1596.29 939.477 1604.96 927.851 C 1608.97 922.456 1616.42 919.132 1624.48 919.132 L 1702.55 919.132 C 1719.9 919.132 1730.74 933.664 1722.07 945.289 C 1718.04 950.684 1710.6 954.008 1702.55 954.008 Z" style=""/>
  <path class="cls-3" d="M 1702.55 1103.88 L 1624.48 1103.88 C 1607.12 1103.88 1596.29 1089.35 1604.96 1077.73 C 1608.97 1072.33 1616.42 1069.01 1624.48 1069.01 L 1702.55 1069.01 C 1719.9 1069.01 1730.74 1083.54 1722.07 1095.16 C 1718.04 1100.56 1710.6 1103.88 1702.55 1103.88 Z" style=""/>
  <path class="cls-3" d="M 1702.55 1253.76 L 1624.48 1253.76 C 1607.12 1253.76 1596.29 1239.23 1604.96 1227.6 C 1608.97 1222.21 1616.42 1218.88 1624.48 1218.88 L 1702.55 1218.88 C 1719.9 1218.88 1730.74 1233.42 1722.07 1245.04 C 1718.04 1250.43 1710.6 1253.76 1702.55 1253.76 Z" style=""/>
  <path class="cls-3" d="M 1702.55 1403.63 L 1624.48 1403.63 C 1607.12 1403.63 1596.29 1389.11 1604.96 1377.48 C 1608.97 1372.09 1616.42 1368.76 1624.48 1368.76 L 1702.55 1368.76 C 1719.9 1368.76 1730.74 1383.29 1722.07 1394.91 C 1718.04 1400.31 1710.6 1403.63 1702.55 1403.63 Z" style=""/>
  <path class="cls-3" d="M 1702.55 1553.42 L 1624.48 1553.42 C 1607.12 1553.42 1596.29 1538.9 1604.96 1527.27 C 1608.97 1521.88 1616.42 1518.55 1624.48 1518.55 L 1702.55 1518.55 C 1719.9 1518.55 1730.74 1533.08 1722.07 1544.7 C 1718.04 1550.1 1710.6 1553.42 1702.55 1553.42 Z" style=""/>
  <path class="cls-3" d="M 1702.55 1703.3 L 1624.48 1703.3 C 1607.12 1703.3 1596.29 1688.77 1604.96 1677.14 C 1608.97 1671.75 1616.42 1668.42 1624.48 1668.42 L 1702.55 1668.42 C 1719.9 1668.42 1730.74 1682.96 1722.07 1694.58 C 1718.04 1699.98 1710.6 1703.3 1702.55 1703.3 Z" style=""/>
  <path class="cls-10" d="M 206.29 1926.85 L 113.787 1926.85 C 101.315 1926.9 91.189 1919.06 91.253 1909.41 L 91.253 837.001 C 91.253 827.371 101.342 819.564 113.787 819.564 L 206.29 819.564 C 218.709 819.611 228.762 827.39 228.823 837.001 L 228.823 1909.41 C 228.823 1919.05 218.734 1926.85 206.29 1926.85 Z" style=""/>
  <path class="cls-10" d="M 1937.24 1926.85 L 1844.74 1926.85 C 1832.29 1926.85 1822.21 1919.05 1822.21 1909.41 L 1822.21 837.001 C 1822.26 827.39 1832.33 819.611 1844.74 819.564 L 1937.24 819.564 C 1949.68 819.564 1959.79 827.371 1959.79 837.001 L 1959.79 1909.41 C 1959.84 1919.06 1949.72 1926.9 1937.24 1926.85 Z" style=""/>
  <path class="cls-3" d="M 157.841 1868.87 C 146.703 1868.87 137.674 1861.88 137.674 1853.26 L 137.674 893.15 C 137.674 884.531 146.703 877.544 157.841 877.544 L 228.823 877.544 L 228.823 837.001 C 228.762 827.39 218.709 819.611 206.29 819.564 L 113.787 819.564 C 101.342 819.564 91.253 827.371 91.253 837.001 L 91.253 1909.41 C 91.189 1919.06 101.315 1926.9 113.787 1926.85 L 206.29 1926.85 C 218.734 1926.85 228.823 1919.05 228.823 1909.41 L 228.823 1868.87 L 157.841 1868.87 Z" style=""/>
  <path class="cls-3" d="M 1894.43 1868.87 C 1883.29 1868.87 1874.26 1861.88 1874.26 1853.26 L 1874.26 893.15 C 1874.26 884.531 1883.29 877.544 1894.43 877.544 L 1959.79 877.544 L 1959.79 837.001 C 1959.79 827.371 1949.68 819.564 1937.24 819.564 L 1844.74 819.564 C 1832.33 819.611 1822.26 827.39 1822.21 837.001 L 1822.21 1909.41 C 1822.21 1919.05 1832.29 1926.85 1844.74 1926.85 L 1937.24 1926.85 C 1949.72 1926.9 1959.84 1919.06 1959.79 1909.41 L 1959.79 1868.87 L 1894.43 1868.87 Z" style=""/>
  <path class="cls-10" d="M 2026.84 854.439 L 22.313 854.439 C 9.842 854.488 -0.283 846.652 -0.221 837.001 L -0.221 765.42 C -0.221 755.79 9.867 747.982 22.313 747.982 L 2026.84 747.982 C 2039.26 748.03 2049.3 755.809 2049.37 765.42 L 2049.37 837.001 C 2049.37 846.632 2039.28 854.439 2026.84 854.439 Z" style=""/>
  <path class="cls-3" d="M 99.31 819.564 C 86.863 819.564 76.776 811.757 76.776 802.126 L 76.776 747.982 L 19.313 747.982 C 6.867 747.982 -3.221 755.79 -3.221 765.42 L -3.221 837.001 C -3.283 846.652 6.842 854.488 19.313 854.439 L 2023.84 854.439 C 2036.28 854.439 2046.37 846.632 2046.37 837.001 L 2046.37 819.564 L 99.31 819.564 Z" style=""/>
  <path class="cls-10" d="M 2027.38 2039.06 L 23.651 2039.06 C 11.206 2039.06 1.117 2031.26 1.117 2021.62 L 1.117 1909.41 C 1.117 1899.79 11.206 1891.97 23.651 1891.97 L 2027.38 1891.97 C 2039.83 1891.97 2049.92 1899.79 2049.92 1909.41 L 2049.92 2021.62 C 2049.92 2031.26 2039.83 2039.06 2027.38 2039.06 Z" style=""/>
  <path class="cls-3" d="M 122.8 1994.24 C 110.381 1994.2 100.327 1986.42 100.266 1976.81 L 100.266 1891.97 L 23.651 1891.97 C 11.206 1891.97 1.117 1899.79 1.117 1909.41 L 1.117 2021.62 C 1.117 2031.26 11.206 2039.06 23.651 2039.06 L 2027.38 2039.06 C 2039.83 2039.06 2049.92 2031.26 2049.92 2021.62 L 2049.92 1994.24 L 122.8 1994.24 Z" style=""/>
  <rect class="cls-11" height="61.965" rx="35.5" ry="35.5" width="1380.44" x="486.727" y="1891.97" style=""/>
  <rect class="cls-11" height="626.089" rx="23.6" ry="23.6" width="53.068" x="1906.72" y="1059.77" style=""/>
  <rect class="cls-11" height="661.566" rx="23.5" ry="23.5" width="53.068" x="175.756" y="1133.09" style=""/>
  <rect class="cls-11" height="53.237" rx="30.5" ry="30.5" width="1368.38" x="406.956" y="747.982" style=""/>
  <circle class="cls-9" cx="1389.48" cy="1510.06" r="19.3" style="" transform="matrix(1.126704, 0, 0, 0.871881, 0.91496, 261.24231)"/>
  <circle class="cls-9" cx="1355.68" cy="1324.86" r="14.6" style="" transform="matrix(1.126704, 0, 0, 0.871881, 0.91496, 261.24231)"/>
  <circle class="cls-9" cx="1437.48" cy="1219.76" r="28.7" style="" transform="matrix(1.126704, 0, 0, 0.871881, 0.91496, 261.24231)"/>
  <circle class="cls-12" cx="1396.08" cy="1158.76" r="12.7" style="" transform="matrix(1.126704, 0, 0, 0.871881, 0.91496, 261.24231)"/>
  <circle class="cls-12" cx="1432.28" cy="1391.46" r="23.5" style="" transform="matrix(1.126704, 0, 0, 0.871881, 0.91496, 261.24231)"/>
  <circle class="cls-12" cx="1356.98" cy="1412.96" r="8.1" style="" transform="matrix(1.126704, 0, 0, 0.871881, 0.91496, 261.24231)"/>
  <circle class="cls-12" cx="1353.08" cy="1632.16" r="12.1" style="" transform="matrix(1.126704, 0, 0, 0.871881, 0.91496, 261.24231)"/>
  <g id="Layer_1" transform="matrix(0.465517, 0, 0, 0.410818, 259.866364, 3.996346)" style="">
    <g transform="matrix(4.002607, 0, 0, 4.002607, 1832.931885, -4.55822)">
      <g>
        <g>
          <g>
            <path class="st0" d="M377.6,385.3c-4,6.6-10.9,10-17.9,10c-3.9,0-7.6-1-11-3.1l2.5,1.6c10,6.2,13,19.3,6.9,29.1      c-4,6.5-10.9,10-17.9,10c-2.9,0-5.7-0.6-8.4-1.8l0.4,0.4c9.9,6.1,13.1,19.2,6.9,29.1c-4,6.6-10.9,10-18,10      c-3.6,0-7.3-0.9-10.6-2.9c8.1,6.6,10.2,18.2,4.5,27.5c-6.3,10.1-19.4,12.8-29,6.9l-97.9-60.2l-55.4-25.2l-18.8-48.4l-101-57.4      V153.4l160.5,87.1l48.8-30.5l41,10.9l-16.4,61.5l124,73.9C380.6,362.3,383.7,375.5,377.6,385.3z" style="fill: rgb(254, 221, 142);"/>
          </g>
          <g>
            <path class="st1" d="M377.6,385.3c-3.3,5.4-8.6,8.7-14.2,9.7c1.5-8.2-2.1-17-9.7-21.7l-124-73.9l16.4-61.5l-27.3-2.4L170,266      L12.9,179.7v-26.3l160.5,87.1l48.8-30.5l41,10.9l-16.4,61.5l124,73.9C380.6,362.3,383.7,375.5,377.6,385.3z" style="fill: rgb(254, 233, 180);"/>
          </g>
          <g>
            <path class="st2" d="M317.7,487.7c-0.4,2.5-1.4,5.1-2.8,7.4c-6.3,10.1-19.4,12.8-29,6.9L188,441.8l-55.4-25.2l-18.8-48.4      l-101-57.4v-26.7L131,351.2l18.8,48.4l55.4,25.2L303,485c3.4,2.1,7.2,3.1,11.1,3.1C315.3,488.1,316.5,488,317.7,487.7z" style="fill: rgb(253, 211, 103);"/>
          </g>
          <g>
            <path class="st1" d="M499.1,112.9v158.8l-79.1,38l-49.3,46.6l-124-73.9l-8.1,24.5c-6,18.2-22.2,31-41.5,32.5l-21.2,0.5      l31.9-81.6l55.2-37.5h48.9L499.1,112.9z" style="fill: rgb(254, 233, 180);"/>
          </g>
          <g>
            <path class="st3" d="M499.1,113v27l-173,99.8h-49l-55.2,37.4l-24.3,62c-0.1,0.1,1,0.1-21.7,0.7l31.9-81.6l55.2-37.4h49      L499.1,113z" style="fill: rgb(255, 243, 217);"/>
          </g>
          <g>
            <polygon class="st0" points="499.1,246.5 499.1,271.7 420,309.6 370.8,356.2 349.9,343.8 406,290.7     " style="fill: rgb(254, 221, 142);"/>
          </g>
          <path class="st1" d="M158.9,441c-1.8,3.1-5.8,4.1-8.9,2.3l-24.5-14.4c-3.1-1.8-4.1-5.8-2.3-8.9l14.4-24.5     c1.8-3.1,5.8-4.1,8.9-2.3l24.5,14.4c3.1,1.8,4.1,5.8,2.3,8.9" style="fill: rgb(254, 233, 180);"/>
          <path class="st1" d="M208.5,437.8l-14.4,24.5c-1.8,3.1-5.8,4.1-8.9,2.3l-24.5-14.4c-3.1-1.8-4.1-5.8-2.3-8.9l14.4-24.5     c1.8-3.1,5.8-4.1,8.9-2.3l24.5,14.4C209.3,430.7,210.3,434.7,208.5,437.8z" style="fill: rgb(254, 233, 180);"/>
          <path class="st1" d="M243.7,459.1l-14.4,24.5c-1.8,3.1-5.8,4.1-8.9,2.3L196,471.5c-3.1-1.8-4.1-5.8-2.3-8.9l14.4-24.5     c1.8-3.1,5.8-4.1,8.9-2.3l24.5,14.4C244.5,452,245.5,456,243.7,459.1z" style="fill: rgb(254, 233, 180);"/>
          <path class="st1" d="M279,480.4l-14.4,24.5c-1.8,3.1-5.8,4.1-8.9,2.3l-24.5-14.4c-3.1-1.8-4.1-5.8-2.3-8.9l14.4-24.5     c1.8-3.1,5.8-4.1,8.9-2.3l24.5,14.4C279.7,473.3,280.8,477.3,279,480.4z" style="fill: rgb(254, 233, 180);"/>
          <path class="st4" d="M501.1,109.6c-1.2-0.7-2.7-0.7-3.9,0L311,217h-47.4c-41.8-10.7-41.1-12-43.7-10.3L173.2,236L14.7,150     c-2.3-1.4-5.8,0.3-5.8,3.5v158.1c0,2.1,1.7,3.9,3.9,3.9l97.9,55.7l14.6,37.7l-5.5,9.4c-2.8,4.8-1.4,11.2,3.7,14.2l24.5,14.4     c3,1.8,6.1,1.3,6.2,1.3c0.8,2.3,2.3,4.3,4.5,5.6l24.5,14.4c3.3,1.9,6.1,1.3,6.2,1.3c0.8,2.3,2.3,4.3,4.5,5.6l24.5,14.4     c3,1.8,6.1,1.3,6.2,1.3c0.8,2.3,2.3,4.3,4.5,5.6l24.5,14.4c5,2.8,11.2,1.3,14.1-3.7l4.9-8.3l11.1,6.8c11.6,7,26.9,3.6,34.3-8.2     c4.4-7.2,4.9-15.6,1.9-22.8c9.2,0.5,17.5-4.2,22.2-11.8c4.6-7.4,5.3-17.2,0.3-25.9c7.7-0.8,14.6-5,18.7-11.7     c5.1-8.3,4.9-18,0.4-25.9c7.9-0.6,15-4.9,19.2-11.8c6.4-10.3,4.3-23.6-4.2-31.4l45.5-43l78.6-37.7c1.4-0.6,2.3-2,2.3-3.6V112.9     C503,111.5,502.3,110.3,501.1,109.6z M154.9,439.7c-1.3,0.8-2.3,0.7-2.9,0.2l-24.5-14.4c-1.1-0.5-1.8-2.4-0.9-3.5l14.4-24.5     c0.5-1.1,2.4-1.8,3.5-0.9L169,411c1.1,0.6,1.5,1.9,1.1,3C168.7,416.1,155.2,439.4,154.9,439.7z M190.2,461     c-1.3,0.8-2.3,0.7-2.9,0.2l-24.5-14.4c-1.2-0.7-1.6-2.3-0.9-3.5l14.4-24.5c0.6-1.1,2.5-1.8,3.6-0.9l24.5,14.4     c1.1,0.6,1.5,1.9,1.1,3C205.1,435.9,190.2,460.7,190.2,461z M225.3,482.3c-1.3,0.8-2.3,0.7-2.9,0.2L198,468.2     c-1.2-0.7-1.6-2.3-0.9-3.5l14.4-24.5c0.6-1.1,2.5-1.8,3.6-0.9l24.5,14.4c1.1,0.5,1.6,2.1,1.1,3     C239.6,458.4,225.5,482.1,225.3,482.3z M275.6,478.4l-14.4,24.5c-0.5,1.1-2.4,1.8-3.5,0.9l-24.5-14.4c-1.1-0.5-1.8-2.4-0.9-3.5     l14.4-24.5c0.9-1.4,2.6-1.6,3.5-0.9l24.5,14.4C275.8,475.4,276.3,476.9,275.6,478.4z M374.2,383.3c-3.1,5.1-8.5,8.1-14.6,8.1     c-3.2,0-6.2-0.9-9-2.6h-0.1l-39.9-23.9c-1.8-1.1-4.2-0.5-5.4,1.3c-1.1,1.9-0.5,4.3,1.3,5.4c0.2,0.1-3.3-2,42.5,25.6     c8,4.9,10.7,15.3,5.6,23.8c-3.1,5.1-8.6,8.1-14.6,8.1c-2.4,0-4.5-0.5-6.7-1.4l-47-28.7c-1.8-1.1-4.2-0.5-5.4,1.3     c-1.1,1.8-0.5,4.2,1.3,5.4c0.1,0.1,47.6,29.2,47.7,29.2c7.9,4.9,10.9,15.3,5.7,23.7c-3.1,5.1-8.6,8.1-14.7,8.1     c-3,0-6-0.8-8.5-2.3l-42.7-27.1c-1.8-1.2-4.2-0.6-5.4,1.2c-1.2,1.8-0.6,4.2,1.2,5.4l42.4,27c6.6,5.5,8.1,14.8,3.6,22.3     c-5.3,8.5-16.2,10.2-23.6,5.6l-11.2-6.9l5.6-9.5c2.9-4.9,1.2-11.3-3.7-14.2l-24.5-14.4c-2-1.1-4.1-1.6-6.2-1.4     c-0.8-2.3-2.4-4.3-4.5-5.6l-24.5-14.4c-1.9-1.1-4.1-1.6-6.3-1.3c-0.8-2.3-2.2-4.3-4.4-5.6l-24.5-14.4c-1.9-1.1-4.1-1.6-6.2-1.4     c-0.8-2.3-2.3-4.3-4.5-5.6l-24.5-14.4c-4.8-2.8-11.2-1.4-14.2,3.7l-3.8,6.5l-12.9-33.2c-0.3-0.8-0.9-1.5-1.7-2l-99.1-56.3V159.9     c162.8,87.5,154.8,86.1,158.6,83.9l47.3-29.6l31.1,8.3l-48.1,32.6c-0.7,0.4-1.2,1.1-1.4,1.8l-31.9,81.6c-0.9,2.1,0.2,5.1,3.7,5.4     l21.4-0.5c20.8-1.6,38.4-15.4,44.9-35.2l6.5-19.8l119.7,71.3C376.6,364.6,379.3,375.3,374.2,383.3z M495.2,269.2l-76.9,36.9     c-0.4,0.2-0.8,0.4-1.1,0.7l-47.1,44.5l-116-69.1l30.2-19.4c1.8-1.2,2.3-3.6,1.2-5.4c-1.2-1.8-3.6-2.3-5.4-1.2     c-40,25.5-36.2,23-37.2,24.9l-8.1,24.5c-5.5,16.8-20.4,28.5-37.9,29.8l-15.3,0.4l29.3-74.9l53.2-36.1c49.6-0.2,47.8,0.5,49.7-0.5     L495,119.8v149.4H495.2z" style="fill: rgb(51, 51, 51);"/>
        </g>
        <g>
          <g>
            <path class="st5" d="M315.7,158.5c-36.3,33-92.4,30.3-125.4-6S159.9,60,196.2,27.1c36.3-33,92.5-30.3,125.5,6      S352,125.5,315.7,158.5z" style="fill: rgb(123, 222, 158);"/>
          </g>
          <g>
            <path class="st6" d="M315.8,158.5c-36.3,33-92.5,30.3-125.5-5.9c-3.4-3.7-6.3-7.5-8.9-11.6c33.6,27.8,83.2,27.5,116.4-2.7      c32.6-29.7,38.1-78.1,14.8-113.9c3.2,2.6,6.3,5.5,9.2,8.7C354.7,69.4,352.1,125.6,315.8,158.5z" style="fill: rgb(81, 210, 127);"/>
          </g>
          <g>
            <path class="st7" d="M330.6,44.6c-33.6-27.8-83.2-27.5-116.3,2.7c-32.6,29.6-38.1,78-14.9,113.9c-3.2-2.7-6.2-5.6-9.1-8.7      c-33-36.3-30.4-92.5,5.9-125.4c36.3-33,92.5-30.4,125.5,6C325,36.8,328,40.6,330.6,44.6z" style="fill: rgb(167, 234, 191);"/>
          </g>
          <g>
            <g>
              <path class="st4" d="M187.3,155.3c-34.1-37.6-32.2-96.3,6.2-131.2c37.9-34.4,96.7-31.6,131.2,6.3       c34.3,37.5,31.9,96.5-6.3,131.2l0,0C280.1,196.3,221.4,192.7,187.3,155.3z M198.9,30.1c-34.6,31.5-37.2,85.1-5.6,119.8       c31.4,34.6,85.2,37.2,119.7,5.7l0,0c34.4-31.2,37.6-84.9,5.7-119.7C287.5,1.4,233.7-1.5,198.9,30.1z" style="fill: rgb(51, 51, 51);"/>
            </g>
          </g>
        </g>
      </g>
      <g>
        <path class="st8" d="M237.7,133.4L237.7,133.4c-3.2,0-6.2-1.3-8.5-3.5l-20.7-20.7c-4.7-4.7-4.7-12.3,0-16.9    c4.7-4.7,12.3-4.7,16.9,0l12.2,12.2l48.8-48.8c4.7-4.7,12.2-4.7,16.9,0s4.7,12.2,0,16.9l-57.2,57.2    C243.9,132.1,240.9,133.4,237.7,133.4z" style="fill: rgb(252, 138, 138);"/>
      </g>
      <g>
        <path class="st9" d="M303.4,72.6l-10.2,10.2c4.7-4.6,4.7-12.2,0-16.9c-4.7-4.6-12.2-4.6-16.9,0l10.2-10.2c4.7-4.7,12.3-4.7,16.9,0    C308.1,60.4,308.1,67.9,303.4,72.6z" style="fill: rgb(249, 99, 100);"/>
      </g>
      <g>
        <path class="st10" d="M253.8,122.2l-7.6,7.6c-4.5,4.5-11.9,4.8-16.9,0l-20.7-20.7c-4.7-4.6-4.7-12.2,0-16.9c1.4-1.4,3-2.4,4.8-2.9    c-1.4,4.2-0.4,8.9,2.9,12.2l20.7,20.7c2.2,2.2,5.3,3.5,8.5,3.5C248.5,125.7,251.6,124.5,253.8,122.2z" style="fill: rgb(252, 176, 176);"/>
      </g>
      <g>
        <g>
          <path class="st4" d="M226.4,132.7L205.7,112c-6.3-6.3-6.3-16.3,0-22.6c6-6,16.6-6,22.6,0l9.4,9.4l45.9-45.9     c6.3-6.3,16.3-6.3,22.6,0c6.3,6.3,6.3,16.3,0,22.6L249,132.7C242.6,139.1,232.5,138.8,226.4,132.7z M211.4,95     c-3.1,3.1-3.1,8.1,0,11.2l20.7,20.7c3,3,8.3,3,11.3,0l57.2-57.2c3.1-3.1,3.1-8.1,0-11.2c-3-3-8.3-3-11.3,0l-48.8,48.8     c-0.8,0.8-1.8,1.2-2.8,1.2l0,0c-1.1,0-2.1-0.4-2.8-1.2l-12.2-12.2C219.1,91.7,214.3,92.1,211.4,95z" style="fill: rgb(51, 51, 51);"/>
        </g>
      </g>
    </g>
  </g>
</svg>