<?xml version="1.0" encoding="iso-8859-1"?>
<!-- Uploaded to: SVG Repo, www.svgrepo.com, Generator: SVG Repo Mixer Tools -->
<svg version="1.1" id="Layer_1" xmlns="http://www.w3.org/2000/svg" xmlns:xlink="http://www.w3.org/1999/xlink" 
	 viewBox="0 0 512 512" xml:space="preserve">
<g>
	<rect x="116.364" y="209.455" style="fill:#A4C6EC;" width="93.091" height="279.273"/>
	<rect x="209.455" y="209.455" style="fill:#A4C6EC;" width="93.091" height="279.273"/>
	<rect x="116.364" y="116.364" style="fill:#A4C6EC;" width="279.273" height="93.091"/>
</g>
<rect id="SVGCleanerId_0" x="302.545" y="209.455" style="fill:#385C8E;" width="93.091" height="279.273"/>
<g>
	<rect x="256" y="209.455" style="fill:#385C8E;" width="46.545" height="279.273"/>
	<polygon style="fill:#385C8E;" points="256,116.364 256,209.455 302.545,209.455 395.636,209.455 395.636,116.364 	"/>
</g>
<g>
	<rect id="SVGCleanerId_0_1_" x="302.545" y="209.455" style="fill:#385C8E;" width="93.091" height="279.273"/>
</g>
<g>
	<path style="fill:#385C8E;" d="M442.182,186.182h-23.273v-69.818c0-12.853-10.42-23.273-23.273-23.273h-38.788V23.273
		C356.848,10.42,346.428,0,333.576,0H178.424c-12.853,0-23.273,10.42-23.273,23.273v69.818h-38.788
		c-12.853,0-23.273,10.42-23.273,23.273v69.818H69.818c-12.853,0-23.273,10.42-23.273,23.273c0,12.853,10.42,23.273,23.273,23.273
		h23.273v256c0,12.854,10.42,23.273,23.273,23.273h93.091h93.091h93.091c12.853,0,23.273-10.418,23.273-23.273v-256h23.273
		c12.853,0,23.273-10.42,23.273-23.273C465.455,196.602,455.035,186.182,442.182,186.182z M201.697,46.545h108.606v46.545H201.697
		V46.545z M139.636,139.636h38.788h155.152h38.788v46.545h-69.818h-93.091h-69.818V139.636z M139.636,232.727h46.545v232.727
		h-46.545V232.727z M232.727,232.727h46.545v232.727h-46.545V232.727z M372.364,465.455h-46.545V232.727h46.545V465.455z"/>
</g>
<path style="fill:#1D3366;" d="M442.182,186.182h-23.273v-69.818c0-12.853-10.42-23.273-23.273-23.273h-38.788V23.273
	C356.848,10.42,346.428,0,333.576,0H256v46.545h54.303v46.545H256v46.545h77.576h38.788v46.545h-69.818H256v46.545h23.273v232.727
	H256V512h46.545h93.091c12.853,0,23.273-10.418,23.273-23.273v-256h23.273c12.853,0,23.273-10.42,23.273-23.273
	C465.455,196.602,455.035,186.182,442.182,186.182z M372.364,465.455h-46.545V232.727h46.545V465.455z"/>
</svg>