<?xml version="1.0" encoding="iso-8859-1"?>
<!-- Uploaded to: SVG Repo, www.svgrepo.com, Generator: SVG Repo Mixer Tools -->
<svg height="800px" width="800px" version="1.1" id="Layer_1" xmlns="http://www.w3.org/2000/svg" xmlns:xlink="http://www.w3.org/1999/xlink" 
	 viewBox="0 0 512 512" xml:space="preserve">
<circle style="fill:#00BCD4;" cx="357.059" cy="154.949" r="143.535"/>
<circle style="fill:#ECF0F1;" cx="357.059" cy="154.949" r="91.863"/>
<path style="fill:#B71C1C;" d="M200.347,368.492L77.745,491.094c-12.562,12.562-32.921,12.562-45.472,0l-11.368-11.357
	c-12.562-12.562-12.562-32.921,0-45.472l122.614-122.603L200.347,368.492z"/>
<path style="fill:#ECF0F1;" d="M223.898,344.952l-23.551,23.54l-56.829-56.829l23.54-23.551c12.551-12.562,32.91-12.562,45.472,0
	l11.368,11.368C236.449,312.031,236.449,332.39,223.898,344.952z"/>
<g>
	<path style="fill:#231F20;" d="M466.669,45.333c-60.442-60.442-158.787-60.442-219.229,0
		c-29.279,29.28-45.404,68.208-45.404,109.615c0,37.557,13.266,73.073,37.579,101.201l-21.508,21.507
		c-7.893-6.755-17.819-10.449-28.318-10.449c-11.657,0-22.615,4.541-30.853,12.787L12.788,426.143C4.543,434.382,0,445.34,0,456.997
		c0,11.656,4.54,22.615,12.788,30.864l11.361,11.351c8.24,8.247,19.197,12.787,30.856,12.787c11.655,0,22.615-4.539,30.86-12.784
		l146.151-146.142c0.002-0.001,0.003-0.003,0.006-0.006c16.185-16.199,16.951-42.051,2.324-59.17l21.517-21.515
		c28.977,25.006,65.085,37.513,101.194,37.513c39.696,0,79.393-15.11,109.614-45.332C527.11,204.121,527.11,105.776,466.669,45.333z
		 M69.625,482.975c-3.906,3.906-9.099,6.057-14.621,6.057c-5.52,0-10.708-2.15-14.616-6.061l-11.365-11.354
		c-3.905-3.906-6.057-9.098-6.057-14.62c0-5.52,2.151-10.707,6.058-14.612l114.493-114.484l40.591,40.591L69.625,482.975z
		 M215.776,336.836l-15.427,15.419l-40.593-40.594l15.426-15.433c3.901-3.904,9.09-6.054,14.608-6.054
		c5.522,0,10.713,2.152,14.621,6.058l11.367,11.367C223.834,315.654,223.833,328.77,215.776,336.836z M450.43,248.323
		c-51.487,51.487-135.262,51.487-186.75,0c-24.942-24.942-38.678-58.103-38.678-93.375s13.736-68.434,38.678-93.375
		c25.747-25.747,59.555-38.616,93.375-38.616c33.811,0,67.634,12.875,93.375,38.616C501.917,113.061,501.917,196.838,450.43,248.323
		z"/>
	<path style="fill:#231F20;" d="M430.131,81.871c-19.52-19.52-45.472-30.269-73.077-30.269s-53.557,10.749-73.077,30.269
		s-30.269,45.473-30.269,73.077c0,27.605,10.749,53.557,30.269,73.077s45.472,30.269,73.077,30.269s53.557-10.749,73.076-30.269
		c19.52-19.519,30.27-45.472,30.27-73.077C460.401,127.345,449.651,101.391,430.131,81.871z M413.892,211.785L413.892,211.785
		c-15.183,15.183-35.367,23.543-56.838,23.543s-41.655-8.361-56.838-23.543c-15.181-15.181-23.542-35.366-23.542-56.837
		c0-21.469,8.361-41.655,23.542-56.837c15.181-15.183,35.367-23.543,56.838-23.543c21.471,0,41.655,8.361,56.837,23.543
		c15.183,15.181,23.543,35.367,23.543,56.837C437.435,176.419,429.074,196.603,413.892,211.785z"/>
</g>
</svg>