<?xml version="1.0" encoding="utf-8"?>
<svg height="800px" width="800px" version="1.1" id="Layer_1" xmlns="http://www.w3.org/2000/svg" viewBox="0 0 512 512">
  <path style="fill:#FFB655;" d="M457.699,248.267l-23.274-0.002v-69.841c0-12.853-10.42-23.273-23.273-23.273H385.78 c-9.675-54.09-52.416-96.832-106.507-106.507V23.273C279.273,10.42,268.853,0,256,0c-12.853,0-23.273,10.42-23.273,23.273v25.372 c-54.09,9.675-96.832,52.416-106.507,106.507h-25.372c-12.853,0-23.273,10.42-23.273,23.273v69.82l-23.271-0.002 c-0.002,0,0,0-0.002,0c-6.172,0-12.091,2.453-16.455,6.816c-4.366,4.364-6.817,10.283-6.817,16.457v217.212 C31.03,501.58,41.45,512,54.303,512h155.152h93.091h155.152c12.853,0,23.273-10.42,23.273-23.273V271.54 C480.97,258.687,470.551,248.269,457.699,248.267z"/>
  <path style="fill:#FF0C38;" d="M325.818,488.727v-23.273v-46.545h-23.273h-23.273h-46.545h-23.273h-23.273v46.545v23.273 c0,12.853,10.42,23.273,23.273,23.273h93.091C315.398,512,325.818,501.58,325.818,488.727z"/>
  <g>
    <path style="fill:#A78966;" d="M232.727,418.909h46.545h23.273h23.273h7.758c12.853,0,23.273-10.42,23.273-23.273 s-10.42-23.273-23.273-23.273h-31.03h-93.091h-31.03c-12.853,0-23.273,10.42-23.273,23.273s10.42,23.273,23.273,23.273h7.758 h23.273H232.727z"/>
    <path style="fill:#A78966;" d="M256,0c-12.853,0-23.273,10.42-23.273,23.273v25.372H256h23.273V23.273 C279.273,10.42,268.853,0,256,0z"/>
    <path style="fill:#A78966;" d="M411.151,155.152H385.78H362.08h-23.999H256h-82.081H149.92H126.22h-25.372 c-12.853,0-23.273,10.42-23.273,23.273v69.82l23.273,0.002L256,248.255l155.152,0.009l23.273,0.002v-69.841 C434.424,165.571,424.004,155.152,411.151,155.152z"/>
  </g>
  <path style="fill:#806749;" d="M256,0c-12.853,0-23.273,10.42-23.273,23.273v25.372H256V0z"/>
  <g>
    <path style="fill:#EE8700;" d="M173.919,155.152H256V48.645h-23.273c-54.09,9.675-96.832,52.416-106.507,106.507h23.699H173.919z"/>
    <path style="fill:#EE8700;" d="M100.848,248.246l-23.273-0.002l-23.271-0.002c-0.002,0,0,0-0.002,0 c-6.172,0-12.091,2.453-16.455,6.816c-4.366,4.364-6.817,10.283-6.817,16.457v217.212C31.03,501.58,41.45,512,54.303,512h155.152 c-12.853,0-23.273-10.42-23.273-23.273v-23.273v-46.545h-7.758c-12.853,0-23.273-10.42-23.273-23.273s10.42-23.273,23.273-23.273 h31.03H256V248.255L100.848,248.246z"/>
  </g>
  <path style="fill:#806749;" d="M256,248.255v-93.103h-82.081H149.92H126.22h-25.372c-12.853,0-23.273,10.42-23.273,23.273v69.82 l23.273,0.002L256,248.255z"/>
  <g id="svg-1" style="" transform="matrix(-0.53925, 0, 0, 0.482367, 518.357117, 2.548774)">
    <path style="fill: rgb(255, 189, 66); stroke-width: 1;" d="M 480.687 352.058 L 479.865 352.88 L 448.248 481.638 C 446.478 488.847 448.603 496.457 453.852 501.706 L 542.094 413.464 L 480.687 352.058 Z"/>
    <path style="fill: rgb(48, 118, 122); stroke-width: 1;" d="M 950.234 82.739 L 872.817 5.324 C 860.281 -7.212 839.957 -7.212 827.421 5.324 L 758.815 73.93 L 748.737 84.008 L 479.865 352.879 L 448.248 481.638 C 446.478 488.847 448.603 496.457 453.852 501.706 C 459.101 506.955 466.71 509.08 473.92 507.31 L 602.679 475.693 L 871.552 206.82 L 881.63 196.742 L 950.236 128.136 C 962.77 115.599 962.77 95.275 950.234 82.739 Z"/>
    <path style="fill: rgb(0, 112, 102); stroke-width: 1;" d="M 872.817 5.324 C 860.281 -7.212 839.957 -7.212 827.421 5.324 L 758.815 73.93 L 748.737 84.008 L 479.865 352.879 L 448.248 481.638 C 446.478 488.847 448.603 496.457 453.852 501.706 L 911.526 44.032 L 872.817 5.324 Z"/>
    <path style="fill: rgb(74, 182, 191); stroke-width: 1;" d="M 872.817 5.324 C 860.281 -7.212 839.957 -7.212 827.421 5.324 L 758.815 73.93 L 748.737 84.008 L 479.865 352.879 L 448.248 481.638 C 446.478 488.847 448.603 496.457 453.852 501.706 L 911.526 44.032 L 872.817 5.324 Z"/>
    <path style="fill: rgb(148, 0, 9); stroke-width: 1;" d="M 913.9 164.469 L 950.234 128.135 C 962.77 115.599 962.77 95.275 950.234 82.739 L 872.817 5.324 C 860.281 -7.212 839.957 -7.212 827.421 5.324 L 791.087 41.658 L 913.9 164.469 Z"/>
    <path style="fill: rgb(255, 0, 41); stroke-width: 1;" d="M 911.526 44.032 L 872.817 5.324 C 860.281 -7.212 839.957 -7.212 827.421 5.324 L 791.087 41.658 L 852.494 103.065 L 911.526 44.032 Z"/>
    <path style="fill: rgb(247, 220, 77); stroke-width: 1;" d="M 480.687 352.058 L 479.865 352.88 L 448.248 481.638 C 446.478 488.847 448.603 496.457 453.852 501.706 C 459.101 506.955 466.71 509.08 473.92 507.31 L 602.679 475.693 L 603.501 474.871 L 480.687 352.058 Z"/>
    <rect x="297.71" y="90.414" transform="matrix(-0.707107, -0.707107, 0.707107, -0.707107, 1014.001892, 485.391327)" style="fill: rgb(255, 152, 0); stroke-width: 1;" width="173.683" height="74.041"/>
    <polygon style="fill: rgb(247, 220, 77); stroke-width: 1;" points="858.37 97.187 796.963 35.782 758.815 73.929 748.738 84.007 744.607 88.139 806.013 149.544"/>
    <path style="fill: rgb(45, 43, 39); stroke-width: 1;" d="M 458.773 438.777 L 448.249 481.637 C 446.479 488.846 448.604 496.456 453.853 501.705 C 459.102 506.954 466.711 509.079 473.921 507.309 L 516.781 496.784 L 458.773 438.777 Z"/>
    <path style="fill: rgb(64, 62, 59); stroke-width: 1;" d="M 458.773 438.777 L 448.249 481.637 C 446.479 488.846 448.604 496.456 453.853 501.705 L 487.778 467.78 L 458.773 438.777 Z"/>
  </g>
</svg>