<?xml version="1.0" encoding="utf-8"?><!-- Uploaded to: SVG Repo, www.svgrepo.com, Generator: SVG Repo Mixer Tools -->
<svg fill="#000000" width="800px" height="800px" viewBox="0 0 24 24" id="print-alt" data-name="Flat Line" xmlns="http://www.w3.org/2000/svg" class="icon flat-line"><path id="secondary" d="M17,7H7V4A1,1,0,0,1,8,3h8a1,1,0,0,1,1,1ZM7,11v9a1,1,0,0,0,1,1h6l3-3V11Z" style="fill: rgb(44, 169, 188); stroke-width: 2;"></path><polyline id="primary" points="17 15 21 15 21 7 3 7 3 15 7 15" style="fill: none; stroke: rgb(0, 0, 0); stroke-linecap: round; stroke-linejoin: round; stroke-width: 2;"></polyline><path id="primary-2" data-name="primary" d="M17,7H7V4A1,1,0,0,1,8,3h8a1,1,0,0,1,1,1ZM7,11v9a1,1,0,0,0,1,1h6l3-3V11Z" style="fill: none; stroke: rgb(0, 0, 0); stroke-linecap: round; stroke-linejoin: round; stroke-width: 2;"></path></svg>