<?xml version="1.0" encoding="iso-8859-1"?>
<!-- Uploaded to: SVG Repo, www.svgrepo.com, Generator: SVG Repo Mixer Tools -->
<svg version="1.1" id="Layer_1" xmlns="http://www.w3.org/2000/svg" xmlns:xlink="http://www.w3.org/1999/xlink" 
	 viewBox="0 0 512 512" xml:space="preserve">
<path style="fill:#919CB0;" d="M51.2,396.8c-21.171,0-38.4-17.229-38.4-38.4V179.2c0-21.171,17.229-38.4,38.4-38.4h409.6
	c21.171,0,38.4,17.229,38.4,38.4v179.2c0,21.171-17.229,38.4-38.4,38.4H51.2z"/>
<g>
	<rect x="128" y="268.8" style="fill:#E9EBEF;" width="256" height="230.4"/>
	<rect x="128" y="12.8" style="fill:#E9EBEF;" width="256" height="128"/>
</g>
<g>
	<rect x="166.4" y="435.2" style="fill:#573A32;" width="179.2" height="25.6"/>
	<rect x="166.4" y="384" style="fill:#573A32;" width="179.2" height="25.6"/>
	<rect x="166.4" y="332.8" style="fill:#573A32;" width="179.2" height="25.6"/>
	<path style="fill:#573A32;" d="M51.2,409.6h64V512h281.6V409.6h64c28.237,0,51.2-22.972,51.2-51.2V179.2
		c0-28.228-22.963-51.2-51.2-51.2h-64V0H115.2v128h-64C22.972,128,0,150.972,0,179.2v179.2C0,386.628,22.972,409.6,51.2,409.6z
		 M371.2,486.4H140.8V281.6h230.4V486.4z M140.8,25.6h230.4V128H140.8V25.6z M25.6,179.2c0-14.14,11.46-25.6,25.6-25.6h409.6
		c14.14,0,25.6,11.46,25.6,25.6v179.2c0,14.14-11.46,25.6-25.6,25.6h-64V281.6h25.6c7.074,0,12.8-5.726,12.8-12.8
		s-5.726-12.8-12.8-12.8H89.6c-7.074,0-12.8,5.726-12.8,12.8c0,7.074,5.726,12.8,12.8,12.8h25.6V384h-64
		c-14.14,0-25.6-11.46-25.6-25.6V179.2z"/>
	<path style="fill:#573A32;" d="M320,204.8h102.4c7.074,0,12.8-5.726,12.8-12.8c0-7.074-5.726-12.8-12.8-12.8H320
		c-7.074,0-12.8,5.726-12.8,12.8C307.2,199.074,312.926,204.8,320,204.8z"/>
</g>
</svg>