<?xml version="1.0" encoding="utf-8"?>
<svg width="800px" height="800px" viewBox="0 0 1024 1024" class="icon" version="1.1" xmlns="http://www.w3.org/2000/svg">
  <path d="M938.666667 426.666667v-149.333334c0-46.933333-38.4-85.333333-85.333334-85.333333h-117.333333c0 17.066667-14.933333 32-32 32s-32-14.933333-32-32H170.666667c-46.933333 0-85.333333 38.4-85.333334 85.333333v149.333334c46.933333 0 85.333333 38.4 85.333334 85.333333s-38.4 85.333333-85.333334 85.333333v149.333334c0 46.933333 38.4 85.333333 85.333334 85.333333h501.333333c0-17.066667 14.933333-32 32-32s32 14.933333 32 32H853.333333c46.933333 0 85.333333-38.4 85.333334-85.333333v-149.333334c-46.933333 0-85.333333-38.4-85.333334-85.333333s38.4-85.333333 85.333334-85.333333zM704 757.333333c-17.066667 0-32-14.933333-32-32s14.933333-32 32-32 32 14.933333 32 32-14.933333 32-32 32z m0-106.666666c-17.066667 0-32-14.933333-32-32s14.933333-32 32-32 32 14.933333 32 32-14.933333 32-32 32z m0-106.666667c-17.066667 0-32-14.933333-32-32s14.933333-32 32-32 32 14.933333 32 32-14.933333 32-32 32z m0-106.666667c-17.066667 0-32-14.933333-32-32s14.933333-32 32-32 32 14.933333 32 32-14.933333 32-32 32z m0-106.666666c-17.066667 0-32-14.933333-32-32s14.933333-32 32-32 32 14.933333 32 32-14.933333 32-32 32z" fill="#FFA726"/>
  <title>arrow-right</title>
  <desc>Created with Sketch.</desc>
  <rect width="442.686" height="450.839" fill="white" fill-opacity="0.01" x="80.964" y="60.579" style="stroke-width: 21.333;"/>
  <path fill-rule="evenodd" clip-rule="evenodd" d="M 265.028 117.08 L 449.478 239.182 L 449.478 455.21 L 80.576 455.21 L 80.576 239.182 L 265.028 117.08 Z" fill="#2F88FF" stroke="#000000" stroke-linecap="round" stroke-linejoin="round" style="stroke-width: 30px;"/>
  <path d="M 218.818 443.56 L 218.818 246.317 L 145.037 293.279 L 145.037 443.56" stroke="white" stroke-linecap="round" stroke-linejoin="round" style="stroke-width: 25px;"/>
  <path d="M 311.238 441.395 L 311.238 244.152 L 385.019 291.114 L 385.019 441.395" stroke="white" stroke-linecap="round" stroke-linejoin="round" style="stroke-width: 25px;"/>
  <path d="M 417.152 455.211 L 112.807 455.211" stroke="#000000" stroke-linecap="round" stroke-linejoin="round" style="stroke-width: 30px; transform-box: fill-box; transform-origin: 50% 50%;" transform="matrix(1, 0, 0, 0.999999, 0, 0.000245)"/>
</svg>