<?xml version="1.0" encoding="utf-8"?>
<svg width="800px" height="800px" viewBox="0 0 1024 1024" class="icon" version="1.1" xmlns="http://www.w3.org/2000/svg">
  <path d="M 956.953 461.265 L 956.953 311.932 C 956.953 264.999 918.553 226.599 871.623 226.599 L 754.293 226.599 C 754.293 243.665 739.353 258.599 722.293 258.599 C 705.223 258.599 690.293 243.665 690.293 226.599 L 188.956 226.599 C 142.023 226.599 103.623 264.999 103.623 311.932 L 103.623 461.265 C 150.556 461.265 188.956 499.665 188.956 546.599 C 188.956 593.532 150.556 631.932 103.623 631.932 L 103.623 781.265 C 103.623 828.196 142.023 866.596 188.956 866.596 L 690.293 866.596 C 690.293 849.536 705.223 834.596 722.293 834.596 C 739.353 834.596 754.293 849.536 754.293 866.596 L 871.623 866.596 C 918.553 866.596 956.953 828.196 956.953 781.265 L 956.953 631.932 C 910.023 631.932 871.623 593.532 871.623 546.599 C 871.623 499.665 910.023 461.265 956.953 461.265 Z M 722.293 791.932 C 705.223 791.932 690.293 776.999 690.293 759.932 C 690.293 742.865 705.223 727.932 722.293 727.932 C 739.353 727.932 754.293 742.865 754.293 759.932 C 754.293 776.999 739.353 791.932 722.293 791.932 Z M 722.293 685.265 C 705.223 685.265 690.293 670.332 690.293 653.265 C 690.293 636.199 705.223 621.265 722.293 621.265 C 739.353 621.265 754.293 636.199 754.293 653.265 C 754.293 670.332 739.353 685.265 722.293 685.265 Z M 722.293 578.599 C 705.223 578.599 690.293 563.665 690.293 546.599 C 690.293 529.532 705.223 514.599 722.293 514.599 C 739.353 514.599 754.293 529.532 754.293 546.599 C 754.293 563.665 739.353 578.599 722.293 578.599 Z M 722.293 471.932 C 705.223 471.932 690.293 456.999 690.293 439.932 C 690.293 422.865 705.223 407.932 722.293 407.932 C 739.353 407.932 754.293 422.865 754.293 439.932 C 754.293 456.999 739.353 471.932 722.293 471.932 Z M 722.293 365.265 C 705.223 365.265 690.293 350.332 690.293 333.265 C 690.293 316.199 705.223 301.265 722.293 301.265 C 739.353 301.265 754.293 316.199 754.293 333.265 C 754.293 350.332 739.353 365.265 722.293 365.265 Z" fill="#FFA726"/>
  <title>arrow-right</title>
  <desc>Created with Sketch.</desc>
  <path fill="#3B88C3" d="M 354.851 531.127 L 354.851 485.234 C 354.851 451.433 315.399 429.133 278.655 429.133 L 145.67 429.133 C 108.956 429.133 66.709 451.433 66.709 485.234 L 66.709 531.127 L 354.851 531.127 Z" style="stroke-width: 28.444;"/>
  <path fill="#0B0200" d="M 210.167 204.524 C 255.664 204.524 331.481 225.464 331.481 316.178 C 331.481 406.91 331.481 427.839 308.739 427.839 C 285.985 427.839 255.653 406.9 210.155 406.9 C 164.665 406.9 134.966 427.839 111.582 427.839 C 86.236 427.839 88.829 344.093 88.829 316.178 C 88.841 225.464 164.677 204.524 210.167 204.524" style="stroke-width: 28.444;"/>
  <path fill="#292F33" d="M 127.661 495.433 L 105.498 495.433 C 105.498 453.678 126.299 408.736 171.992 408.736 L 171.992 429.133 C 136.926 429.133 127.661 472.505 127.661 495.433 Z M 304.983 454.639 L 282.812 454.639 C 282.812 450.443 277.037 429.133 249.566 429.133 L 249.566 408.736 C 288.716 408.736 304.983 438.628 304.983 454.639 Z" style="stroke-width: 28.444;"/>
  <circle fill="#CCD6DD" cx="539.35" cy="873.573" r="27.243" style="stroke-width: 28.444;" transform="matrix(1.220368, 0, 0, 1.123142, -541.625, -485.714386)"/>
  <circle fill="#F5F8FA" cx="539.35" cy="873.573" r="18.162" style="stroke-width: 28.444;" transform="matrix(1.220368, 0, 0, 1.123142, -541.625, -485.714386)"/>
  <path fill="#292F33" d="M 338.229 510.73 L 316.056 510.73 C 316.056 502.216 314.87 459.738 291.124 459.738 C 267.387 459.738 266.189 502.216 266.189 510.73 L 244.028 510.73 C 244.028 466.026 261.634 439.332 291.124 439.332 C 320.613 439.332 338.229 466.026 338.229 510.73 Z" style="stroke-width: 28.444;"/>
  <circle fill="#CCD6DD" cx="894.906" cy="916.239" r="9.081" style="stroke-width: 28.444;" transform="matrix(1.220368, 0, 0, 1.123142, -837.004333, -518.33551)"/>
  <circle fill="#CCD6DD" cx="1079.8" cy="916.239" r="9.081" style="stroke-width: 28.444;" transform="matrix(1.220368, 0, 0, 1.123142, -990.605774, -518.33551)"/>
  <path fill="#7C533E" d="M 171.992 392.506 L 171.992 429.133 L 210.784 480.135 L 249.566 429.133 L 249.566 392.506 L 171.992 392.506 Z" style="stroke-width: 28.444;"/>
  <path fill="#664131" d="M 171.992 408.736 C 183.329 420.514 195.402 424.034 210.663 424.034 C 225.949 424.034 238.233 420.514 249.566 408.736 L 249.566 378.779 L 171.992 378.779 L 171.992 408.736 Z" style="stroke-width: 28.444;"/>
  <path fill="#7C533E" d="M 119.172 313.137 C 119.172 253.633 159.912 205.401 210.167 205.401 C 260.403 205.401 301.141 253.645 301.141 313.137 C 301.141 372.633 260.403 418.041 210.167 418.041 C 159.912 418.041 119.172 372.633 119.172 313.137" style="stroke-width: 28.444;"/>
  <path fill="#DF1F32" d="M 210.167 392.944 C 192.368 392.944 183.05 384.848 182.053 383.925 C 178.105 379.958 180.299 373.546 186.006 372.376 C 188.389 371.891 190.881 372.49 192.703 373.984 C 193.092 374.317 198.812 378.997 210.167 378.997 C 221.675 378.997 227.406 374.174 227.632 373.974 C 230.665 371.358 235.404 371.453 238.309 374.184 C 241.189 376.923 241.189 381.233 238.264 383.925 C 237.272 384.848 227.966 392.944 210.167 392.944" style="stroke-width: 28.444;"/>
  <path fill="#0B0200" d="M 96.908 346.613 C 96.675 336.413 96.421 344.327 96.421 341.87 C 96.421 306.967 119.172 346.908 119.172 322.052 C 119.172 297.175 134.331 294.686 149.495 280.735 C 157.084 273.747 172.246 260.071 172.246 260.071 C 172.246 260.071 210.155 281.152 240.487 281.152 C 270.808 281.152 301.151 295.176 301.151 323.092 C 301.151 350.997 323.905 306.938 323.905 341.828 C 323.905 344.318 323.657 336.413 323.462 346.613 L 331.428 346.613 C 331.505 326.214 331.505 326.988 331.505 313.954 C 331.505 223.241 255.676 189.449 210.167 189.449 C 164.677 189.449 88.841 222.668 88.841 313.393 C 88.841 321.48 88.62 326.214 88.929 346.613 L 96.908 346.613 Z" style="stroke-width: 28.444;"/>
  <path d="M 173.189 335.261 C 168.016 335.237 163.83 331.382 163.811 326.621 L 163.811 318.002 C 163.811 313.26 168.034 309.373 173.189 309.373 C 178.362 309.39 182.55 313.244 182.575 318.002 L 182.575 326.621 C 182.554 331.386 178.364 335.244 173.189 335.261 M 248.164 335.261 C 242.992 335.237 238.805 331.382 238.783 326.621 L 238.783 318.002 C 238.783 313.26 243.003 309.373 248.164 309.373 C 253.312 309.373 257.532 313.26 257.532 318.002 L 257.532 326.621 C 257.521 331.382 253.334 335.237 248.164 335.261" fill="#000000" style="stroke-width: 28.444;"/>
  <path fill="#3D2E24" d="M 220.043 361.911 L 201.316 361.911 C 198.726 361.902 196.632 359.98 196.632 357.592 L 196.632 356.032 C 196.632 353.663 198.726 351.713 201.316 351.713 L 220.043 351.713 C 222.623 351.713 224.739 353.654 224.739 356.032 L 224.739 357.592 C 224.739 359.98 222.636 361.911 220.043 361.911" style="stroke-width: 28.444;"/>
  <path fill="#7C533E" d="M 138.123 315.361 C 138.123 330.132 129.989 342.104 119.959 342.104 C 109.933 342.104 101.794 330.132 101.794 315.361 C 101.794 300.592 109.933 288.608 119.959 288.608 C 129.989 288.608 138.123 300.581 138.123 315.361 M 319.749 315.361 C 319.749 330.132 311.632 342.104 301.582 342.104 C 291.556 342.104 283.427 330.132 283.427 315.361 C 283.427 300.592 291.544 288.608 301.582 288.608 C 311.632 288.608 319.749 300.581 319.749 315.361" style="stroke-width: 28.444;"/>
  <path d="M 534.204 531.297 L 534.204 483.809 C 534.204 448.834 494.188 425.763 456.936 425.763 L 322.058 425.763 C 284.82 425.763 241.974 448.834 241.974 483.809 L 241.974 531.297 L 534.204 531.297 Z" style="stroke-width: 28.444; fill: rgb(93, 96, 85);"/>
  <path fill="#292F33" d="M 387.475 206.651 C 433.606 206.651 510.508 227.079 510.508 315.573 C 510.508 404.084 510.508 424.502 487.437 424.502 C 464.365 424.502 433.596 404.076 387.455 404.076 C 341.321 404.076 311.199 424.502 287.484 424.502 C 261.778 424.502 264.408 342.804 264.408 315.573 C 264.42 227.079 341.332 206.651 387.475 206.651" style="stroke-width: 28.444;"/>
  <circle fill="#CCD6DD" cx="1079.79" cy="916.239" r="6.564" style="stroke-width: 28.444;" transform="matrix(1.342923, 0, 0, 1.527992, -944.567749, -897.90625)"/>
  <path fill="#F7DECE" d="M 348.752 390.036 L 348.752 425.763 L 388.092 475.514 L 427.43 425.763 L 427.43 390.036 L 348.752 390.036 Z" style="stroke-width: 28.444;"/>
  <path fill="#EEC2AD" d="M 348.752 405.865 C 360.251 417.359 372.49 420.791 387.976 420.791 C 403.482 420.791 415.93 417.359 427.43 405.865 L 427.43 376.643 L 348.752 376.643 L 348.752 405.865 Z" style="stroke-width: 28.444;"/>
  <path fill="#F7DECE" d="M 295.182 312.606 C 295.182 254.558 336.5 207.506 387.475 207.506 C 438.426 207.506 479.738 254.571 479.738 312.606 C 479.738 370.645 438.426 414.94 387.475 414.94 C 336.5 414.94 295.182 370.645 295.182 312.606" style="stroke-width: 28.444;"/>
  <path fill="#DF1F32" d="M 387.475 390.463 C 369.421 390.463 359.969 382.565 358.958 381.658 C 354.952 377.791 357.178 371.535 362.965 370.398 C 365.382 369.923 367.911 370.506 369.758 371.968 C 370.15 372.286 375.949 376.852 387.475 376.852 C 399.141 376.852 404.953 372.146 405.183 371.955 C 408.25 369.404 413.06 369.49 416.015 372.156 C 418.936 374.831 418.936 379.032 415.959 381.658 C 414.959 382.565 405.528 390.463 387.475 390.463" style="stroke-width: 28.444;"/>
  <path fill="#292F33" d="M 272.603 345.261 C 272.367 335.312 272.107 343.033 272.107 340.635 C 272.107 306.586 295.182 345.549 295.182 321.302 C 295.182 297.035 310.558 294.607 325.935 280.994 C 333.636 274.181 349.01 260.837 349.01 260.837 C 349.01 260.837 387.455 281.402 418.226 281.402 C 448.978 281.402 479.748 295.085 479.748 322.318 C 479.748 349.541 502.827 306.557 502.827 340.596 C 502.827 343.023 502.568 335.312 502.38 345.261 L 510.454 345.261 C 510.518 325.363 510.518 326.118 510.518 313.404 C 510.518 224.91 433.627 191.946 387.475 191.946 C 341.332 191.946 264.42 224.352 264.42 312.855 C 264.42 320.745 264.196 325.363 264.509 345.261 L 272.603 345.261 Z" style="stroke-width: 28.444;"/>
  <path fill="#662113" d="M 349.966 334.187 C 344.721 334.166 340.474 330.402 340.455 325.761 L 340.455 317.352 C 340.455 312.726 344.739 308.935 349.966 308.935 C 355.21 308.95 359.46 312.709 359.485 317.352 L 359.485 325.761 C 359.465 330.408 355.213 334.172 349.966 334.187 M 425.999 334.187 C 420.752 334.166 416.513 330.402 416.494 325.761 L 416.494 317.352 C 416.494 312.726 420.773 308.935 425.999 308.935 C 431.228 308.935 435.514 312.726 435.514 317.352 L 435.514 325.761 C 435.494 330.402 431.248 334.166 425.999 334.187" style="stroke-width: 28.444;"/>
  <path fill="#C1694F" d="M 397.483 361.582 L 378.493 361.582 C 375.868 361.573 373.742 359.693 373.738 357.37 L 373.738 355.848 C 373.738 353.53 375.861 351.632 378.493 351.632 L 397.483 351.632 C 400.103 351.632 402.249 353.522 402.249 355.848 L 402.249 357.37 C 402.249 359.697 400.112 361.582 397.483 361.582" style="stroke-width: 28.444;"/>
  <path fill="#F7DECE" d="M 314.404 314.776 C 314.404 329.184 306.152 340.864 295.981 340.864 C 285.81 340.864 277.558 329.184 277.558 314.776 C 277.558 300.368 285.81 288.677 295.981 288.677 C 306.152 288.677 314.404 300.357 314.404 314.776 M 498.612 314.776 C 498.612 329.184 490.369 340.864 480.185 340.864 C 470.012 340.864 461.768 329.184 461.768 314.776 C 461.768 300.368 470.001 288.677 480.185 288.677 C 490.369 288.677 498.612 300.357 498.612 314.776" style="stroke-width: 28.444;"/>
  <radialGradient id="IconifyId17ecdb2904d178eab9148" cx="64.139" cy="4.464" r="69.458" gradientTransform="matrix(-2.726275, 0.012576, 0.007321, 1.632932, 732.117371, 521.353943)" gradientUnits="userSpaceOnUse">
    <stop offset="0.559" stop-color="#f5f5f5"/>
    <stop offset="1" stop-color="#c6c6c6"/>
  </radialGradient>
  <path d="M 557 452.297 C 492.606 452.492 425.812 472.781 425.812 522.332 L 425.812 530.827 L 688.191 530.827 L 688.191 522.332 C 688.191 472.754 621.401 452.464 557 452.297 Z" fill="url(#IconifyId17ecdb2904d178eab9148)" style="stroke-width: 8;"/>
  <path d="M 642.312 405.739 C 639.155 399.395 643.171 392.94 650.038 384.947 C 660.921 372.258 672.756 342.83 661.749 312.955 C 661.826 312.787 659.584 307.758 659.654 307.59 L 655.136 307.338 C 653.698 307.115 603.993 307.003 554.242 307.003 C 504.485 307.003 454.781 307.115 453.342 307.338 C 453.342 307.338 446.653 312.787 446.703 312.955 C 435.722 342.83 447.536 372.231 458.416 384.947 C 465.257 392.94 469.271 399.395 466.14 405.739 C 463.086 411.916 453.998 412.81 453.998 412.81 C 453.998 412.81 456.094 419.126 461.142 422.535 C 465.812 425.693 471.567 426.42 475.53 426.532 C 475.53 426.532 491.055 450.314 531.646 450.314 L 576.828 450.314 C 617.42 450.314 632.945 426.532 632.945 426.532 C 636.912 426.42 642.667 425.693 647.34 422.535 C 652.39 419.126 654.479 412.81 654.479 412.81 C 654.479 412.81 645.367 411.916 642.312 405.739 Z" fill="#543930" style="stroke-width: 8;"/>
  <radialGradient id="IconifyId17ecdb2904d178eab9149" cx="99.638" cy="45.85" r="23.419" gradientTransform="matrix(2.524328, 0, 0, 1.372748, 339.508118, 349.228821)" gradientUnits="userSpaceOnUse">
    <stop offset="0.728" stop-color="#6d4c41" stop-opacity="0"/>
    <stop offset="1" stop-color="#6d4c41"/>
  </radialGradient>
  <path d="M 554.188 450.286 L 554.188 423.905 L 626.308 417.589 L 632.875 426.532 C 632.875 426.532 617.352 450.314 576.758 450.314 L 554.188 450.286 Z" fill="url(#IconifyId17ecdb2904d178eab9149)" style="stroke-width: 8;"/>
  <radialGradient id="IconifyId17ecdb2904d178eab9150" cx="76.573" cy="49.332" r="6.921" gradientTransform="matrix(-2.286283, 1.184386, -0.793648, -1.877746, 863.477783, 404.370605)" gradientUnits="userSpaceOnUse">
    <stop offset="0.663" stop-color="#6d4c41"/>
    <stop offset="1" stop-color="#6d4c41" stop-opacity="0"/>
  </radialGradient>
  <path d="M 632.721 414.99 C 621.915 396.824 645.869 390.033 645.869 390.033 L 645.901 390.061 C 641.731 395.791 639.836 400.792 642.288 405.739 C 645.344 411.916 654.433 412.81 654.433 412.81 C 654.433 412.81 642.033 424.994 632.721 414.99 Z" fill="url(#IconifyId17ecdb2904d178eab9150)" style="stroke-width: 8;"/>
  <radialGradient id="IconifyId17ecdb2904d178eab9151" cx="94.509" cy="68.91" r="30.399" gradientTransform="matrix(-0.188316, -2.786856, 2.097968, -0.173828, 477.207672, 623.08783)" gradientUnits="userSpaceOnUse">
    <stop offset="0.725" stop-color="#6d4c41" stop-opacity="0"/>
    <stop offset="1" stop-color="#6d4c41"/>
  </radialGradient>
  <path d="M 661.803 312.955 C 672.531 341.88 661.246 371.671 650.665 384.248 C 649.235 385.98 643.07 392.659 641.654 397.997 C 641.654 397.997 617.575 360.801 610.383 338.946 C 608.943 334.53 607.606 330.004 607.427 325.309 C 607.304 321.786 607.783 317.594 609.624 314.603 C 611.868 310.944 660.512 309.853 660.512 309.853 C 660.512 309.882 661.803 312.955 661.803 312.955 Z" fill="url(#IconifyId17ecdb2904d178eab9151)" style="stroke-width: 8;"/>
  <radialGradient id="IconifyId17ecdb2904d178eab9152" cx="44.31" cy="68.91" r="30.399" gradientTransform="matrix(0.188316, -2.786856, -2.097968, -0.173828, 640.733582, 483.188965)" gradientUnits="userSpaceOnUse">
    <stop offset="0.725" stop-color="#6d4c41" stop-opacity="0"/>
    <stop offset="1" stop-color="#6d4c41"/>
  </radialGradient>
  <path d="M 446.678 312.955 C 435.974 341.88 447.258 371.671 457.811 384.219 C 459.275 385.952 465.408 392.631 466.822 397.969 C 466.822 397.969 490.903 360.772 498.098 338.917 C 499.562 334.502 500.874 329.975 501.051 325.28 C 501.178 321.759 500.699 317.568 498.856 314.578 C 496.608 310.915 493.983 311.894 490.172 311.894 C 482.902 311.894 451.069 309.825 448.596 309.825 C 448.621 309.882 446.678 312.955 446.678 312.955 Z" fill="url(#IconifyId17ecdb2904d178eab9152)" style="stroke-width: 8;"/>
  <radialGradient id="IconifyId17ecdb2904d178eab9153" cx="49.439" cy="45.85" r="23.419" gradientTransform="matrix(-2.524328, 0, 0, 1.372748, 642.258301, 349.228821)" gradientUnits="userSpaceOnUse">
    <stop offset="0.728" stop-color="#6d4c41" stop-opacity="0"/>
    <stop offset="1" stop-color="#6d4c41"/>
  </radialGradient>
  <path d="M 554.289 450.286 L 554.289 423.905 L 482.169 417.589 L 475.606 426.532 C 475.606 426.532 491.13 450.314 531.722 450.314 L 554.289 450.286 Z" fill="url(#IconifyId17ecdb2904d178eab9153)" style="stroke-width: 8;"/>
  <radialGradient id="IconifyId17ecdb2904d178eab9154" cx="26.374" cy="49.332" r="6.921" gradientTransform="matrix(2.286283, 1.184386, 0.793648, -1.877746, 359.781006, 463.827393)" gradientUnits="userSpaceOnUse">
    <stop offset="0.663" stop-color="#6d4c41"/>
    <stop offset="1" stop-color="#6d4c41" stop-opacity="0"/>
  </radialGradient>
  <path d="M 475.758 414.99 C 486.562 396.824 462.606 390.033 462.606 390.033 L 462.581 390.061 C 466.746 395.791 468.64 400.792 466.19 405.739 C 463.136 411.916 454.048 412.81 454.048 412.81 C 454.048 412.81 466.443 424.994 475.758 414.99 Z" fill="url(#IconifyId17ecdb2904d178eab9154)" style="stroke-width: 8;"/>
  <g transform="matrix(2.524328, 0, 0, 2.794682, 392.657806, 182.584808)" style="">
    <path d="M54.92 90.08v20.96c0 5.26 3.7 9.53 8.26 9.53h1.65c4.56 0 8.26-4.26 8.26-9.53V90.08H54.92z" fill="#99674f"/>
  </g>
  <path fill="#81d4fa" d="M 525.588 467.641 L 535.307 529.125 L 574.16 529.125 L 582.838 467.641 L 525.588 467.641 Z" style="stroke-width: 8;"/>
  <g transform="matrix(2.524328, 0, 0, 2.794682, 392.657806, 182.584808)" style="">
    <linearGradient id="IconifyId17ecdb2904d178eab9155" gradientUnits="userSpaceOnUse" x1="26.655" y1="11.255" x2="26.655" y2="31.458" gradientTransform="rotate(180 52.079 64)">
      <stop offset="0.335" stop-color="#e0e0e0"/>
      <stop offset="0.668" stop-color="#d0d0d0"/>
      <stop offset="0.987" stop-color="#bdbdbd"/>
    </linearGradient>
    <path d="M73.12 96.17c5.92.43 8.69.94 8.69.94l3.13 7.3l-5.25 4.39l2.83 6.17l-5.58 8.99h-6.87l3.05-27.79z" fill="url(#IconifyId17ecdb2904d178eab9155)"/>
    <linearGradient id="IconifyId17ecdb2904d178eab9156" gradientUnits="userSpaceOnUse" x1="12.773" y1="11.255" x2="12.773" y2="31.458" gradientTransform="matrix(1 0 0 -1 37.757 128)">
      <stop offset="0.335" stop-color="#e0e0e0"/>
      <stop offset="0.668" stop-color="#d0d0d0"/>
      <stop offset="0.987" stop-color="#bdbdbd"/>
    </linearGradient>
    <path d="M54.91 96.17c-5.92.43-8.69.94-8.69.94l-3.13 7.3l5.25 4.39l-2.83 6.17l5.58 8.99h6.87l-3.05-27.79z" fill="url(#IconifyId17ecdb2904d178eab9156)"/>
  </g>
  <g transform="matrix(2.524328, 0, 0, 2.794682, 392.657806, 182.584808)" style="">
    <path d="M32.94 104.33c1.57-.82 3.4-2.02 4.25-2.76c1.92-1.67 6.47-5.97 9.86-2.94c3.66 3.21-.1 8.27-1.55 10.37c-.72 1.05-1.27 2.21-1.72 3.39" fill="none" stroke="#03a9f4" stroke-width="3" stroke-miterlimit="10"/>
    <linearGradient id="IconifyId17ecdb2904d178eab9157" gradientUnits="userSpaceOnUse" x1="34.007" y1="23.511" x2="24.6" y2="12.679" gradientTransform="matrix(1 0 0 -1 0 128)">
      <stop offset="0" stop-color="#757575"/>
      <stop offset="1"/>
    </linearGradient>
    <path d="M29.79 111.35c-.49.08-1.02.29-1.54-.21c-.34-.33-.77-1.27-.65-2.08c.12-.82 1.03-1.16 2.97-1.99c1.51-.64 2.9-1.29 4.16-2.14l-1.88-2.34s-2.17 1.22-3.35 1.68c-2.09.8-4.47 1.71-4.86 4.35c-.42 2.84 1.14 4.86 2.34 5.77c.98.75 1.92 1.11 2.83 1.17c1.41.09 2.35-.83 2.35-2.25s-1.39-2.12-2.37-1.96z" fill="url(#IconifyId17ecdb2904d178eab9157)"/>
    <linearGradient id="IconifyId17ecdb2904d178eab9158" gradientUnits="userSpaceOnUse" x1="42.813" y1="15.863" x2="33.406" y2="5.032" gradientTransform="matrix(1 0 0 -1 0 128)">
      <stop offset="0" stop-color="#757575"/>
      <stop offset="1"/>
    </linearGradient>
    <path d="M37.03 116.79c-.01.5-.14 1.05.43 1.49c.38.29 1.37.58 2.15.35c.79-.24 1-1.18 1.54-3.22c.42-1.58.86-3.06 1.52-4.43l2.58 1.52s-.9 2.32-1.18 3.56c-.49 2.19-1.05 4.67-3.61 5.43c-2.75.83-4.98-.44-6.05-1.49c-.88-.87-1.37-1.74-1.56-2.64c-.29-1.38.49-2.45 1.89-2.65s2.31 1.08 2.29 2.08z" fill="url(#IconifyId17ecdb2904d178eab9158)"/>
    <path d="M55.1 93.75c-4.63.09-7.93 2.45-9.19 3.91l2.27 1.96c.03-.03 2.45-2.74 6.92-2.86v-3.01z" fill="#03a9f4"/>
    <path d="M86.26 102.48c-2.43-5.47-6.19-7.55-8.21-8.3c-1.85-.69-3.65-.97-4.97-1.08v3.01c1.08.1 2.49.34 3.93.88c1.58.59 4.53 2.24 6.51 6.71c2.78 6.26 3.48 7.89 3.49 7.89l2.75-1.19s-.7-1.62-3.5-7.92z" fill="#03a9f4"/>
    <linearGradient id="IconifyId17ecdb2904d178eab9159" gradientUnits="userSpaceOnUse" x1="87.856" y1="18.892" x2="93.231" y2="7.517" gradientTransform="matrix(1 0 0 -1 0 128)">
      <stop offset="0" stop-color="#757575"/>
      <stop offset="1"/>
    </linearGradient>
    <circle cx="90.2" cy="114.06" r="7" fill="url(#IconifyId17ecdb2904d178eab9159)"/>
    <circle cx="90.2" cy="114.06" r="4" fill="#9e9e9e"/>
  </g>
  <g transform="matrix(2.524328, 0, 0, 2.794682, 392.657806, 182.584808)" style="">
    <path d="M91.33 50.43H36.67c-5.89 0-10.71 5.14-10.71 11.41s4.82 11.41 10.71 11.41h54.65c5.89 0 10.71-5.14 10.71-11.41s-4.81-11.41-10.7-11.41z" fill="#99674f"/>
  </g>
  <g transform="matrix(2.524328, 0, 0, 2.794682, 392.657806, 182.584808)" style="">
    <path d="M64 11.07c-17.4 0-33.52 18.61-33.52 45.4c0 26.64 16.61 39.81 33.52 39.81S97.52 83.1 97.52 56.46c0-26.78-16.12-45.39-33.52-45.39z" fill="#ba8d68"/>
  </g>
  <g fill="#613e31" transform="matrix(2.524328, 0, 0, 2.794682, 392.657806, 182.584808)" style="">
    <path d="M54.8 49.82c-.93-1.23-3.07-3.01-7.23-3.01s-6.31 1.79-7.23 3.01c-.41.54-.31 1.17-.02 1.55c.26.35 1.04.68 1.9.39s2.54-1.16 5.35-1.18c2.81.02 4.49.89 5.35 1.18c.86.29 1.64-.03 1.9-.39c.28-.38.39-1.01-.02-1.55z"/>
    <path d="M87.67 49.82c-.93-1.23-3.07-3.01-7.23-3.01s-6.31 1.79-7.23 3.01c-.41.54-.31 1.17-.02 1.55c.26.35 1.04.68 1.9.39s2.54-1.16 5.35-1.18c2.81.02 4.49.89 5.35 1.18c.86.29 1.64-.03 1.9-.39c.28-.38.39-1.01-.02-1.55z"/>
  </g>
  <g fill="#49362e" transform="matrix(2.524328, 0, 0, 2.794682, 392.657806, 182.584808)" style="">
    <ellipse cx="47.56" cy="58.81" rx="4.93" ry="5.1"/>
    <ellipse cx="80.44" cy="58.81" rx="4.93" ry="5.1"/>
  </g>
  <path d="M 575.466 395.37 C 567.445 400.652 541.062 400.652 533.034 395.37 C 528.415 392.325 523.694 396.991 525.614 401.631 C 527.508 406.187 541.874 416.777 554.312 416.777 C 566.757 416.777 580.943 406.187 582.838 401.631 C 584.733 396.991 580.084 392.325 575.466 395.37 Z" fill="#5d4037" style="stroke-width: 8;"/>
  <path d="M 563.957 372.789 C 563.679 372.676 563.431 372.593 563.152 372.566 L 545.277 372.566 C 544.999 372.593 544.721 372.676 544.473 372.789 C 542.856 373.516 541.975 375.361 542.725 377.345 C 543.483 379.33 547.042 384.863 554.211 384.863 C 561.381 384.863 564.939 379.302 565.698 377.345 C 566.456 375.361 565.574 373.516 563.957 372.789 Z" fill="#99674f" style="stroke-width: 8;"/>
  <g transform="matrix(2.524328, 0, 0, 2.794682, 392.657806, 182.584808)" style="">
    <path d="M104.07 25.11c-2.44-3.69-7.91-8.64-12.82-8.97c-.79-4.72-5.84-8.72-10.73-10.27c-13.23-4.19-21.84.51-26.46 3.03c-.96.52-7.17 3.97-11.51 1.5c-2.72-1.55-2.67-5.74-2.67-5.74s-8.52 3.25-5.61 12.3c-2.93.12-6.77 1.36-8.8 5.47c-2.42 4.9-1.56 8.99-.86 10.95c-2.52 2.14-5.69 6.69-3.52 12.6c1.64 4.45 8.17 6.5 8.17 6.5c-.46 8.01 1.03 12.94 1.82 14.93c.14.35.63.32.72-.04c.99-3.97 4.37-17.8 4.03-20.21c0 0 11.35-2.25 22.17-10.22c2.2-1.62 4.59-3 7.13-4.01c13.59-5.41 16.43 3.82 16.43 3.82s9.42-1.81 12.26 11.27c1.07 4.9 1.79 12.75 2.4 18.24c.04.39.57.47.72.11c.95-2.18 2.85-6.5 3.3-10.91c.16-1.55 4.34-3.6 6.14-10.26c2.41-8.88-.54-17.42-2.31-20.09z" fill="#543930"/>
    <radialGradient id="IconifyId17ecdb2904d178eab9160" cx="82.019" cy="84.946" r="35.633" gradientTransform="matrix(.3076 .9515 .706 -.2282 -3.184 -15.605)" gradientUnits="userSpaceOnUse">
      <stop offset="0.699" stop-color="#6d4c41" stop-opacity="0"/>
      <stop offset="1" stop-color="#6d4c41"/>
    </radialGradient>
    <path d="M100.22 55.5c.16-1.55 4.34-3.6 6.14-10.26c.19-.71.35-1.43.5-2.15c1.46-8.09-1.16-15.52-2.79-17.98c-2.26-3.41-7.1-7.89-11.69-8.81c-.4-.05-.79-.1-1.16-.12c0 0 .33 2.15-.54 3.86c-1.12 2.22-3.41 2.75-3.41 2.75c11.97 11.98 11.12 22 12.95 32.71z" fill="url(#IconifyId17ecdb2904d178eab9160)"/>
    <radialGradient id="IconifyId17ecdb2904d178eab9161" cx="47.28" cy="123.8" r="9.343" gradientTransform="matrix(.8813 .4726 .5603 -1.045 -63.752 111.228)" gradientUnits="userSpaceOnUse">
      <stop offset="0.58" stop-color="#6d4c41"/>
      <stop offset="1" stop-color="#6d4c41" stop-opacity="0"/>
    </radialGradient>
    <path d="M56.95 7.39c-1.1.53-2.06 1.06-2.9 1.51c-.96.52-7.17 3.97-11.51 1.5c-2.67-1.52-2.67-5.58-2.67-5.72c-1.23 1.57-4.95 12.78 5.93 13.53c4.69.32 7.58-3.77 9.3-7.23c.62-1.26 1.59-3.1 1.85-3.59z" fill="url(#IconifyId17ecdb2904d178eab9161)"/>
    <radialGradient id="IconifyId17ecdb2904d178eab9162" cx="159.055" cy="62.862" r="28.721" gradientTransform="matrix(-.9378 -.3944 -.2182 .5285 231.04 50.678)" gradientUnits="userSpaceOnUse">
      <stop offset="0.699" stop-color="#6d4c41" stop-opacity="0"/>
      <stop offset="1" stop-color="#6d4c41"/>
    </radialGradient>
    <path d="M79.16 5.47c7.32 1.98 10.89 5.71 12.08 10.68c.35 1.46.77 15.08-25.23-.4c-9.67-5.76-7.03-9.36-5.9-9.77c4.42-1.6 10.85-2.73 19.05-.51z" fill="url(#IconifyId17ecdb2904d178eab9162)"/>
    <radialGradient id="IconifyId17ecdb2904d178eab9163" cx="43.529" cy="115.276" r="8.575" gradientTransform="matrix(1 0 0 -1.2233 0 153.742)" gradientUnits="userSpaceOnUse">
      <stop offset="0.702" stop-color="#6d4c41" stop-opacity="0"/>
      <stop offset="1" stop-color="#6d4c41"/>
    </radialGradient>
    <path d="M39.84 4.68c-.01.01-.03.01-.06.03h-.01c-.93.39-8.24 3.78-5.51 12.25l7.78 1.25c-6.89-6.98-2.17-13.55-2.17-13.55s-.02.01-.03.02z" fill="url(#IconifyId17ecdb2904d178eab9163)"/>
    <radialGradient id="IconifyId17ecdb2904d178eab9164" cx="42.349" cy="100.139" r="16.083" gradientTransform="matrix(-.9657 -.2598 -.2432 .9037 107.598 -51.632)" gradientUnits="userSpaceOnUse">
      <stop offset="0.66" stop-color="#6d4c41" stop-opacity="0"/>
      <stop offset="1" stop-color="#6d4c41"/>
    </radialGradient>
    <path d="M39.07 17.73l-4.81-.77c-.19 0-.83.06-1.18.11c-2.71.38-5.9 1.78-7.63 5.36c-1.86 3.86-1.81 7.17-1.3 9.38c.15.74.45 1.58.45 1.58s2.38-2.26 8.05-2.41l6.42-13.25z" fill="url(#IconifyId17ecdb2904d178eab9164)"/>
    <radialGradient id="IconifyId17ecdb2904d178eab9165" cx="38.533" cy="84.609" r="16.886" gradientTransform="matrix(.9907 .1363 .1915 -1.3921 -15.841 155.923)" gradientUnits="userSpaceOnUse">
      <stop offset="0.598" stop-color="#6d4c41" stop-opacity="0"/>
      <stop offset="1" stop-color="#6d4c41"/>
    </radialGradient>
    <path d="M24.37 33.58c-2.37 2.1-5.56 6.79-3.21 12.61c1.77 4.39 8.09 6.29 8.09 6.29c0 .02 1.26.4 1.91.4l1.48-21.9c-3.03 0-5.94.91-7.82 2.22c.03.03-.46.35-.45.38z" fill="url(#IconifyId17ecdb2904d178eab9165)"/>
  </g>
</svg>