<?xml version="1.0" encoding="utf-8"?>
<svg width="800px" height="800px" viewBox="0 0 1024 1024" class="icon" version="1.1" xmlns="http://www.w3.org/2000/svg">
  <path d="M 956.953 461.265 L 956.953 311.932 C 956.953 264.999 918.553 226.599 871.623 226.599 L 754.293 226.599 C 754.293 243.665 739.353 258.599 722.293 258.599 C 705.223 258.599 690.293 243.665 690.293 226.599 L 188.956 226.599 C 142.023 226.599 103.623 264.999 103.623 311.932 L 103.623 461.265 C 150.556 461.265 188.956 499.665 188.956 546.599 C 188.956 593.532 150.556 631.932 103.623 631.932 L 103.623 781.265 C 103.623 828.196 142.023 866.596 188.956 866.596 L 690.293 866.596 C 690.293 849.536 705.223 834.596 722.293 834.596 C 739.353 834.596 754.293 849.536 754.293 866.596 L 871.623 866.596 C 918.553 866.596 956.953 828.196 956.953 781.265 L 956.953 631.932 C 910.023 631.932 871.623 593.532 871.623 546.599 C 871.623 499.665 910.023 461.265 956.953 461.265 Z M 722.293 791.932 C 705.223 791.932 690.293 776.999 690.293 759.932 C 690.293 742.865 705.223 727.932 722.293 727.932 C 739.353 727.932 754.293 742.865 754.293 759.932 C 754.293 776.999 739.353 791.932 722.293 791.932 Z M 722.293 685.265 C 705.223 685.265 690.293 670.332 690.293 653.265 C 690.293 636.199 705.223 621.265 722.293 621.265 C 739.353 621.265 754.293 636.199 754.293 653.265 C 754.293 670.332 739.353 685.265 722.293 685.265 Z M 722.293 578.599 C 705.223 578.599 690.293 563.665 690.293 546.599 C 690.293 529.532 705.223 514.599 722.293 514.599 C 739.353 514.599 754.293 529.532 754.293 546.599 C 754.293 563.665 739.353 578.599 722.293 578.599 Z M 722.293 471.932 C 705.223 471.932 690.293 456.999 690.293 439.932 C 690.293 422.865 705.223 407.932 722.293 407.932 C 739.353 407.932 754.293 422.865 754.293 439.932 C 754.293 456.999 739.353 471.932 722.293 471.932 Z M 722.293 365.265 C 705.223 365.265 690.293 350.332 690.293 333.265 C 690.293 316.199 705.223 301.265 722.293 301.265 C 739.353 301.265 754.293 316.199 754.293 333.265 C 754.293 350.332 739.353 365.265 722.293 365.265 Z" fill="#FFA726"/>
  <title>arrow-right</title>
  <desc>Created with Sketch.</desc>
  <circle fill="#CCD6DD" cx="1079.79" cy="916.239" r="6.564" style="stroke-width: 28.444;" transform="matrix(1.342923, 0, 0, 1.527992, -1197.364136, -610.161133)"/>
  <radialGradient id="IconifyId17ecdb2904d178eab9148" cx="64.139" cy="4.464" r="69.458" gradientTransform="matrix(-2.726275, 0.012576, 0.007321, 1.632932, 479.32103, 809.099091)" gradientUnits="userSpaceOnUse">
    <stop offset="0.559" stop-color="#f5f5f5"/>
    <stop offset="1" stop-color="#c6c6c6"/>
  </radialGradient>
  <path d="M 304.204 740.042 C 239.81 740.237 173.016 760.526 173.016 810.077 L 173.016 818.572 L 435.395 818.572 L 435.395 810.077 C 435.395 760.499 368.605 740.209 304.204 740.042 Z" fill="url(#IconifyId17ecdb2904d178eab9148)" style="stroke-width: 8;"/>
  <path d="M 389.516 693.484 C 386.359 687.14 390.375 680.685 397.242 672.692 C 408.125 660.003 419.96 630.575 408.953 600.7 C 409.03 600.532 406.788 595.503 406.858 595.335 L 402.34 595.083 C 400.902 594.86 351.197 594.748 301.446 594.748 C 251.689 594.748 201.985 594.86 200.546 595.083 C 200.546 595.083 193.857 600.532 193.907 600.7 C 182.926 630.575 194.74 659.976 205.62 672.692 C 212.461 680.685 216.475 687.14 213.344 693.484 C 210.29 699.661 201.202 700.555 201.202 700.555 C 201.202 700.555 203.298 706.871 208.346 710.28 C 213.016 713.438 218.771 714.165 222.734 714.277 C 222.734 714.277 238.259 738.059 278.85 738.059 L 324.032 738.059 C 364.624 738.059 380.149 714.277 380.149 714.277 C 384.116 714.165 389.871 713.438 394.544 710.28 C 399.594 706.871 401.683 700.555 401.683 700.555 C 401.683 700.555 392.571 699.661 389.516 693.484 Z" fill="#543930" style="stroke-width: 8;"/>
  <radialGradient id="IconifyId17ecdb2904d178eab9149" cx="99.638" cy="45.85" r="23.419" gradientTransform="matrix(2.524328, 0, 0, 1.372748, 86.711777, 636.973969)" gradientUnits="userSpaceOnUse">
    <stop offset="0.728" stop-color="#6d4c41" stop-opacity="0"/>
    <stop offset="1" stop-color="#6d4c41"/>
  </radialGradient>
  <path d="M 301.392 738.031 L 301.392 711.65 L 373.512 705.334 L 380.079 714.277 C 380.079 714.277 364.556 738.059 323.962 738.059 L 301.392 738.031 Z" fill="url(#IconifyId17ecdb2904d178eab9149)" style="stroke-width: 8;"/>
  <radialGradient id="IconifyId17ecdb2904d178eab9150" cx="76.573" cy="49.332" r="6.921" gradientTransform="matrix(-2.286283, 1.184386, -0.793648, -1.877746, 610.681442, 692.115753)" gradientUnits="userSpaceOnUse">
    <stop offset="0.663" stop-color="#6d4c41"/>
    <stop offset="1" stop-color="#6d4c41" stop-opacity="0"/>
  </radialGradient>
  <path d="M 379.925 702.735 C 369.119 684.569 393.073 677.778 393.073 677.778 L 393.105 677.806 C 388.935 683.536 387.04 688.537 389.492 693.484 C 392.548 699.661 401.637 700.555 401.637 700.555 C 401.637 700.555 389.237 712.739 379.925 702.735 Z" fill="url(#IconifyId17ecdb2904d178eab9150)" style="stroke-width: 8;"/>
  <radialGradient id="IconifyId17ecdb2904d178eab9151" cx="94.509" cy="68.91" r="30.399" gradientTransform="matrix(-0.188316, -2.786856, 2.097968, -0.173828, 224.411331, 910.832977)" gradientUnits="userSpaceOnUse">
    <stop offset="0.725" stop-color="#6d4c41" stop-opacity="0"/>
    <stop offset="1" stop-color="#6d4c41"/>
  </radialGradient>
  <path d="M 409.007 600.7 C 419.735 629.625 408.45 659.416 397.869 671.993 C 396.439 673.725 390.274 680.404 388.858 685.742 C 388.858 685.742 364.779 648.546 357.587 626.691 C 356.147 622.275 354.81 617.749 354.631 613.054 C 354.508 609.531 354.987 605.339 356.828 602.348 C 359.072 598.689 407.716 597.598 407.716 597.598 C 407.716 597.627 409.007 600.7 409.007 600.7 Z" fill="url(#IconifyId17ecdb2904d178eab9151)" style="stroke-width: 8;"/>
  <radialGradient id="IconifyId17ecdb2904d178eab9152" cx="44.31" cy="68.91" r="30.399" gradientTransform="matrix(0.188316, -2.786856, -2.097968, -0.173828, 387.937241, 770.934113)" gradientUnits="userSpaceOnUse">
    <stop offset="0.725" stop-color="#6d4c41" stop-opacity="0"/>
    <stop offset="1" stop-color="#6d4c41"/>
  </radialGradient>
  <path d="M 193.882 600.7 C 183.178 629.625 194.462 659.416 205.015 671.964 C 206.479 673.697 212.612 680.376 214.026 685.714 C 214.026 685.714 238.107 648.517 245.302 626.662 C 246.766 622.247 248.078 617.72 248.255 613.025 C 248.382 609.504 247.903 605.313 246.06 602.323 C 243.812 598.66 241.187 599.639 237.376 599.639 C 230.106 599.639 198.273 597.57 195.8 597.57 C 195.825 597.627 193.882 600.7 193.882 600.7 Z" fill="url(#IconifyId17ecdb2904d178eab9152)" style="stroke-width: 8;"/>
  <radialGradient id="IconifyId17ecdb2904d178eab9153" cx="49.439" cy="45.85" r="23.419" gradientTransform="matrix(-2.524328, 0, 0, 1.372748, 389.46196, 636.973969)" gradientUnits="userSpaceOnUse">
    <stop offset="0.728" stop-color="#6d4c41" stop-opacity="0"/>
    <stop offset="1" stop-color="#6d4c41"/>
  </radialGradient>
  <path d="M 301.493 738.031 L 301.493 711.65 L 229.373 705.334 L 222.81 714.277 C 222.81 714.277 238.334 738.059 278.926 738.059 L 301.493 738.031 Z" fill="url(#IconifyId17ecdb2904d178eab9153)" style="stroke-width: 8;"/>
  <radialGradient id="IconifyId17ecdb2904d178eab9154" cx="26.374" cy="49.332" r="6.921" gradientTransform="matrix(2.286283, 1.184386, 0.793648, -1.877746, 106.984665, 751.57254)" gradientUnits="userSpaceOnUse">
    <stop offset="0.663" stop-color="#6d4c41"/>
    <stop offset="1" stop-color="#6d4c41" stop-opacity="0"/>
  </radialGradient>
  <path d="M 222.962 702.735 C 233.766 684.569 209.81 677.778 209.81 677.778 L 209.785 677.806 C 213.95 683.536 215.844 688.537 213.394 693.484 C 210.34 699.661 201.252 700.555 201.252 700.555 C 201.252 700.555 213.647 712.739 222.962 702.735 Z" fill="url(#IconifyId17ecdb2904d178eab9154)" style="stroke-width: 8;"/>
  <g transform="matrix(2.524328, 0, 0, 2.794682, 139.861465, 470.329956)" style="">
    <path d="M54.92 90.08v20.96c0 5.26 3.7 9.53 8.26 9.53h1.65c4.56 0 8.26-4.26 8.26-9.53V90.08H54.92z" fill="#99674f"/>
  </g>
  <path fill="#81d4fa" d="M 272.792 755.386 L 282.511 816.87 L 321.364 816.87 L 330.042 755.386 L 272.792 755.386 Z" style="stroke-width: 8;"/>
  <g transform="matrix(2.524328, 0, 0, 2.794682, 139.861465, 470.329956)" style="">
    <linearGradient id="IconifyId17ecdb2904d178eab9155" gradientUnits="userSpaceOnUse" x1="26.655" y1="11.255" x2="26.655" y2="31.458" gradientTransform="rotate(180 52.079 64)">
      <stop offset="0.335" stop-color="#e0e0e0"/>
      <stop offset="0.668" stop-color="#d0d0d0"/>
      <stop offset="0.987" stop-color="#bdbdbd"/>
    </linearGradient>
    <path d="M73.12 96.17c5.92.43 8.69.94 8.69.94l3.13 7.3l-5.25 4.39l2.83 6.17l-5.58 8.99h-6.87l3.05-27.79z" fill="url(#IconifyId17ecdb2904d178eab9155)"/>
    <linearGradient id="IconifyId17ecdb2904d178eab9156" gradientUnits="userSpaceOnUse" x1="12.773" y1="11.255" x2="12.773" y2="31.458" gradientTransform="matrix(1 0 0 -1 37.757 128)">
      <stop offset="0.335" stop-color="#e0e0e0"/>
      <stop offset="0.668" stop-color="#d0d0d0"/>
      <stop offset="0.987" stop-color="#bdbdbd"/>
    </linearGradient>
    <path d="M54.91 96.17c-5.92.43-8.69.94-8.69.94l-3.13 7.3l5.25 4.39l-2.83 6.17l5.58 8.99h6.87l-3.05-27.79z" fill="url(#IconifyId17ecdb2904d178eab9156)"/>
  </g>
  <g transform="matrix(2.524328, 0, 0, 2.794682, 139.861465, 470.329956)" style="">
    <path d="M32.94 104.33c1.57-.82 3.4-2.02 4.25-2.76c1.92-1.67 6.47-5.97 9.86-2.94c3.66 3.21-.1 8.27-1.55 10.37c-.72 1.05-1.27 2.21-1.72 3.39" fill="none" stroke="#03a9f4" stroke-width="3" stroke-miterlimit="10"/>
    <linearGradient id="IconifyId17ecdb2904d178eab9157" gradientUnits="userSpaceOnUse" x1="34.007" y1="23.511" x2="24.6" y2="12.679" gradientTransform="matrix(1 0 0 -1 0 128)">
      <stop offset="0" stop-color="#757575"/>
      <stop offset="1"/>
    </linearGradient>
    <path d="M29.79 111.35c-.49.08-1.02.29-1.54-.21c-.34-.33-.77-1.27-.65-2.08c.12-.82 1.03-1.16 2.97-1.99c1.51-.64 2.9-1.29 4.16-2.14l-1.88-2.34s-2.17 1.22-3.35 1.68c-2.09.8-4.47 1.71-4.86 4.35c-.42 2.84 1.14 4.86 2.34 5.77c.98.75 1.92 1.11 2.83 1.17c1.41.09 2.35-.83 2.35-2.25s-1.39-2.12-2.37-1.96z" fill="url(#IconifyId17ecdb2904d178eab9157)"/>
    <linearGradient id="IconifyId17ecdb2904d178eab9158" gradientUnits="userSpaceOnUse" x1="42.813" y1="15.863" x2="33.406" y2="5.032" gradientTransform="matrix(1 0 0 -1 0 128)">
      <stop offset="0" stop-color="#757575"/>
      <stop offset="1"/>
    </linearGradient>
    <path d="M37.03 116.79c-.01.5-.14 1.05.43 1.49c.38.29 1.37.58 2.15.35c.79-.24 1-1.18 1.54-3.22c.42-1.58.86-3.06 1.52-4.43l2.58 1.52s-.9 2.32-1.18 3.56c-.49 2.19-1.05 4.67-3.61 5.43c-2.75.83-4.98-.44-6.05-1.49c-.88-.87-1.37-1.74-1.56-2.64c-.29-1.38.49-2.45 1.89-2.65s2.31 1.08 2.29 2.08z" fill="url(#IconifyId17ecdb2904d178eab9158)"/>
    <path d="M55.1 93.75c-4.63.09-7.93 2.45-9.19 3.91l2.27 1.96c.03-.03 2.45-2.74 6.92-2.86v-3.01z" fill="#03a9f4"/>
    <path d="M86.26 102.48c-2.43-5.47-6.19-7.55-8.21-8.3c-1.85-.69-3.65-.97-4.97-1.08v3.01c1.08.1 2.49.34 3.93.88c1.58.59 4.53 2.24 6.51 6.71c2.78 6.26 3.48 7.89 3.49 7.89l2.75-1.19s-.7-1.62-3.5-7.92z" fill="#03a9f4"/>
    <linearGradient id="IconifyId17ecdb2904d178eab9159" gradientUnits="userSpaceOnUse" x1="87.856" y1="18.892" x2="93.231" y2="7.517" gradientTransform="matrix(1 0 0 -1 0 128)">
      <stop offset="0" stop-color="#757575"/>
      <stop offset="1"/>
    </linearGradient>
    <circle cx="90.2" cy="114.06" r="7" fill="url(#IconifyId17ecdb2904d178eab9159)"/>
    <circle cx="90.2" cy="114.06" r="4" fill="#9e9e9e"/>
  </g>
  <g transform="matrix(2.524328, 0, 0, 2.794682, 139.861465, 470.329956)" style="">
    <path d="M91.33 50.43H36.67c-5.89 0-10.71 5.14-10.71 11.41s4.82 11.41 10.71 11.41h54.65c5.89 0 10.71-5.14 10.71-11.41s-4.81-11.41-10.7-11.41z" fill="#99674f"/>
  </g>
  <g transform="matrix(2.524328, 0, 0, 2.794682, 139.861465, 470.329956)" style="">
    <path d="M64 11.07c-17.4 0-33.52 18.61-33.52 45.4c0 26.64 16.61 39.81 33.52 39.81S97.52 83.1 97.52 56.46c0-26.78-16.12-45.39-33.52-45.39z" fill="#ba8d68"/>
  </g>
  <g fill="#613e31" transform="matrix(2.524328, 0, 0, 2.794682, 139.861465, 470.329956)" style="">
    <path d="M54.8 49.82c-.93-1.23-3.07-3.01-7.23-3.01s-6.31 1.79-7.23 3.01c-.41.54-.31 1.17-.02 1.55c.26.35 1.04.68 1.9.39s2.54-1.16 5.35-1.18c2.81.02 4.49.89 5.35 1.18c.86.29 1.64-.03 1.9-.39c.28-.38.39-1.01-.02-1.55z"/>
    <path d="M87.67 49.82c-.93-1.23-3.07-3.01-7.23-3.01s-6.31 1.79-7.23 3.01c-.41.54-.31 1.17-.02 1.55c.26.35 1.04.68 1.9.39s2.54-1.16 5.35-1.18c2.81.02 4.49.89 5.35 1.18c.86.29 1.64-.03 1.9-.39c.28-.38.39-1.01-.02-1.55z"/>
  </g>
  <g fill="#49362e" transform="matrix(2.524328, 0, 0, 2.794682, 139.861465, 470.329956)" style="">
    <ellipse cx="47.56" cy="58.81" rx="4.93" ry="5.1"/>
    <ellipse cx="80.44" cy="58.81" rx="4.93" ry="5.1"/>
  </g>
  <path d="M 322.67 683.115 C 314.649 688.397 288.266 688.397 280.238 683.115 C 275.619 680.07 270.898 684.736 272.818 689.376 C 274.712 693.932 289.078 704.522 301.516 704.522 C 313.961 704.522 328.147 693.932 330.042 689.376 C 331.937 684.736 327.288 680.07 322.67 683.115 Z" fill="#5d4037" style="stroke-width: 8;"/>
  <path d="M 311.161 660.534 C 310.883 660.421 310.635 660.338 310.356 660.311 L 292.481 660.311 C 292.203 660.338 291.925 660.421 291.677 660.534 C 290.06 661.261 289.179 663.106 289.929 665.09 C 290.687 667.075 294.246 672.608 301.415 672.608 C 308.585 672.608 312.143 667.047 312.902 665.09 C 313.66 663.106 312.778 661.261 311.161 660.534 Z" fill="#99674f" style="stroke-width: 8;"/>
  <g transform="matrix(2.524328, 0, 0, 2.794682, 139.861465, 470.329956)" style="">
    <path d="M104.07 25.11c-2.44-3.69-7.91-8.64-12.82-8.97c-.79-4.72-5.84-8.72-10.73-10.27c-13.23-4.19-21.84.51-26.46 3.03c-.96.52-7.17 3.97-11.51 1.5c-2.72-1.55-2.67-5.74-2.67-5.74s-8.52 3.25-5.61 12.3c-2.93.12-6.77 1.36-8.8 5.47c-2.42 4.9-1.56 8.99-.86 10.95c-2.52 2.14-5.69 6.69-3.52 12.6c1.64 4.45 8.17 6.5 8.17 6.5c-.46 8.01 1.03 12.94 1.82 14.93c.14.35.63.32.72-.04c.99-3.97 4.37-17.8 4.03-20.21c0 0 11.35-2.25 22.17-10.22c2.2-1.62 4.59-3 7.13-4.01c13.59-5.41 16.43 3.82 16.43 3.82s9.42-1.81 12.26 11.27c1.07 4.9 1.79 12.75 2.4 18.24c.04.39.57.47.72.11c.95-2.18 2.85-6.5 3.3-10.91c.16-1.55 4.34-3.6 6.14-10.26c2.41-8.88-.54-17.42-2.31-20.09z" fill="#543930"/>
    <radialGradient id="IconifyId17ecdb2904d178eab9160" cx="82.019" cy="84.946" r="35.633" gradientTransform="matrix(.3076 .9515 .706 -.2282 -3.184 -15.605)" gradientUnits="userSpaceOnUse">
      <stop offset="0.699" stop-color="#6d4c41" stop-opacity="0"/>
      <stop offset="1" stop-color="#6d4c41"/>
    </radialGradient>
    <path d="M100.22 55.5c.16-1.55 4.34-3.6 6.14-10.26c.19-.71.35-1.43.5-2.15c1.46-8.09-1.16-15.52-2.79-17.98c-2.26-3.41-7.1-7.89-11.69-8.81c-.4-.05-.79-.1-1.16-.12c0 0 .33 2.15-.54 3.86c-1.12 2.22-3.41 2.75-3.41 2.75c11.97 11.98 11.12 22 12.95 32.71z" fill="url(#IconifyId17ecdb2904d178eab9160)"/>
    <radialGradient id="IconifyId17ecdb2904d178eab9161" cx="47.28" cy="123.8" r="9.343" gradientTransform="matrix(.8813 .4726 .5603 -1.045 -63.752 111.228)" gradientUnits="userSpaceOnUse">
      <stop offset="0.58" stop-color="#6d4c41"/>
      <stop offset="1" stop-color="#6d4c41" stop-opacity="0"/>
    </radialGradient>
    <path d="M56.95 7.39c-1.1.53-2.06 1.06-2.9 1.51c-.96.52-7.17 3.97-11.51 1.5c-2.67-1.52-2.67-5.58-2.67-5.72c-1.23 1.57-4.95 12.78 5.93 13.53c4.69.32 7.58-3.77 9.3-7.23c.62-1.26 1.59-3.1 1.85-3.59z" fill="url(#IconifyId17ecdb2904d178eab9161)"/>
    <radialGradient id="IconifyId17ecdb2904d178eab9162" cx="159.055" cy="62.862" r="28.721" gradientTransform="matrix(-.9378 -.3944 -.2182 .5285 231.04 50.678)" gradientUnits="userSpaceOnUse">
      <stop offset="0.699" stop-color="#6d4c41" stop-opacity="0"/>
      <stop offset="1" stop-color="#6d4c41"/>
    </radialGradient>
    <path d="M79.16 5.47c7.32 1.98 10.89 5.71 12.08 10.68c.35 1.46.77 15.08-25.23-.4c-9.67-5.76-7.03-9.36-5.9-9.77c4.42-1.6 10.85-2.73 19.05-.51z" fill="url(#IconifyId17ecdb2904d178eab9162)"/>
    <radialGradient id="IconifyId17ecdb2904d178eab9163" cx="43.529" cy="115.276" r="8.575" gradientTransform="matrix(1 0 0 -1.2233 0 153.742)" gradientUnits="userSpaceOnUse">
      <stop offset="0.702" stop-color="#6d4c41" stop-opacity="0"/>
      <stop offset="1" stop-color="#6d4c41"/>
    </radialGradient>
    <path d="M39.84 4.68c-.01.01-.03.01-.06.03h-.01c-.93.39-8.24 3.78-5.51 12.25l7.78 1.25c-6.89-6.98-2.17-13.55-2.17-13.55s-.02.01-.03.02z" fill="url(#IconifyId17ecdb2904d178eab9163)"/>
    <radialGradient id="IconifyId17ecdb2904d178eab9164" cx="42.349" cy="100.139" r="16.083" gradientTransform="matrix(-.9657 -.2598 -.2432 .9037 107.598 -51.632)" gradientUnits="userSpaceOnUse">
      <stop offset="0.66" stop-color="#6d4c41" stop-opacity="0"/>
      <stop offset="1" stop-color="#6d4c41"/>
    </radialGradient>
    <path d="M39.07 17.73l-4.81-.77c-.19 0-.83.06-1.18.11c-2.71.38-5.9 1.78-7.63 5.36c-1.86 3.86-1.81 7.17-1.3 9.38c.15.74.45 1.58.45 1.58s2.38-2.26 8.05-2.41l6.42-13.25z" fill="url(#IconifyId17ecdb2904d178eab9164)"/>
    <radialGradient id="IconifyId17ecdb2904d178eab9165" cx="38.533" cy="84.609" r="16.886" gradientTransform="matrix(.9907 .1363 .1915 -1.3921 -15.841 155.923)" gradientUnits="userSpaceOnUse">
      <stop offset="0.598" stop-color="#6d4c41" stop-opacity="0"/>
      <stop offset="1" stop-color="#6d4c41"/>
    </radialGradient>
    <path d="M24.37 33.58c-2.37 2.1-5.56 6.79-3.21 12.61c1.77 4.39 8.09 6.29 8.09 6.29c0 .02 1.26.4 1.91.4l1.48-21.9c-3.03 0-5.94.91-7.82 2.22c.03.03-.46.35-.45.38z" fill="url(#IconifyId17ecdb2904d178eab9165)"/>
  </g>
  <g id="Layer_1" transform="matrix(0.836179, 0, 0, 0.77247, -537.169128, 126.290016)" style="">
    <path style="fill: rgb(255, 189, 66); stroke-width: 1;" d="M 1184.32 603.981 L 1183.5 604.803 L 1151.88 733.561 C 1150.11 740.77 1152.24 748.38 1157.49 753.629 L 1245.73 665.387 L 1184.32 603.981 Z"/>
    <path style="fill: rgb(48, 118, 122); stroke-width: 1;" d="M 1653.87 334.662 L 1576.45 257.247 C 1563.92 244.711 1543.59 244.711 1531.06 257.247 L 1462.45 325.853 L 1452.37 335.931 L 1183.5 604.802 L 1151.88 733.561 C 1150.11 740.77 1152.24 748.38 1157.49 753.629 C 1162.74 758.878 1170.35 761.003 1177.56 759.233 L 1306.32 727.616 L 1575.19 458.743 L 1585.27 448.665 L 1653.87 380.059 C 1666.41 367.522 1666.41 347.198 1653.87 334.662 Z"/>
    <path style="fill: rgb(0, 112, 102); stroke-width: 1;" d="M 1576.45 257.247 C 1563.92 244.711 1543.59 244.711 1531.06 257.247 L 1462.45 325.853 L 1452.37 335.931 L 1183.5 604.802 L 1151.88 733.561 C 1150.11 740.77 1152.24 748.38 1157.49 753.629 L 1615.16 295.955 L 1576.45 257.247 Z"/>
    <path style="fill: rgb(74, 182, 191); stroke-width: 1;" d="M 1576.45 257.247 C 1563.92 244.711 1543.59 244.711 1531.06 257.247 L 1462.45 325.853 L 1452.37 335.931 L 1183.5 604.802 L 1151.88 733.561 C 1150.11 740.77 1152.24 748.38 1157.49 753.629 L 1615.16 295.955 L 1576.45 257.247 Z"/>
    <path style="fill: rgb(148, 0, 9); stroke-width: 1;" d="M 1617.54 416.392 L 1653.87 380.058 C 1666.41 367.522 1666.41 347.198 1653.87 334.662 L 1576.45 257.247 C 1563.92 244.711 1543.59 244.711 1531.06 257.247 L 1494.72 293.581 L 1617.54 416.392 Z"/>
    <path style="fill: rgb(255, 0, 41); stroke-width: 1;" d="M 1615.16 295.955 L 1576.45 257.247 C 1563.92 244.711 1543.59 244.711 1531.06 257.247 L 1494.72 293.581 L 1556.13 354.988 L 1615.16 295.955 Z"/>
    <path style="fill: rgb(247, 220, 77); stroke-width: 1;" d="M 1184.32 603.981 L 1183.5 604.803 L 1151.88 733.561 C 1150.11 740.77 1152.24 748.38 1157.49 753.629 C 1162.74 758.878 1170.35 761.003 1177.56 759.233 L 1306.32 727.616 L 1307.14 726.794 L 1184.32 603.981 Z"/>
    <rect x="297.71" y="90.414" transform="matrix(-0.707107, -0.707107, 0.707107, -0.707107, 1717.637817, 737.313965)" style="fill: rgb(255, 152, 0); stroke-width: 1;" width="173.683" height="74.041"/>
    <polygon style="fill: rgb(247, 220, 77); stroke-width: 1;" points="1562.01 349.11 1500.6 287.705 1462.45 325.852 1452.37 335.93 1448.24 340.062 1509.65 401.467"/>
    <path style="fill: rgb(45, 43, 39); stroke-width: 1;" d="M 1162.41 690.7 L 1151.88 733.56 C 1150.12 740.769 1152.24 748.379 1157.49 753.628 C 1162.74 758.877 1170.35 761.002 1177.56 759.232 L 1220.42 748.707 L 1162.41 690.7 Z"/>
    <path style="fill: rgb(64, 62, 59); stroke-width: 1;" d="M 1162.41 690.7 L 1151.88 733.56 C 1150.12 740.769 1152.24 748.379 1157.49 753.628 L 1191.41 719.703 L 1162.41 690.7 Z"/>
  </g>
</svg>