<?xml version="1.0" encoding="utf-8"?>
<svg width="800px" height="800px" viewBox="0 0 1024 1024" class="icon" version="1.1" xmlns="http://www.w3.org/2000/svg">
  <path style="stroke-width: 1.72; fill: rgb(255, 255, 255);" d="M 100.186 600.648 C 59.361 600.648 26.138 574.599 26.138 542.589 L 26.138 271.649 C 26.138 239.639 59.361 213.59 100.186 213.59 L 890.029 213.59 C 930.854 213.59 964.077 239.639 964.077 271.649 L 964.077 542.589 C 964.077 574.599 930.854 600.648 890.029 600.648 L 100.186 600.648 Z"/>
  <rect x="248.282" y="407.119" style="fill: rgb(233, 235, 239); stroke-width: 1.72;" width="493.652" height="348.352"/>
  <rect x="248.282" y="20.062" style="stroke-width: 1.72; fill: rgb(255, 255, 255);" width="493.652" height="193.529"/>
  <path style="stroke-width: 1.72; fill: rgb(0, 116, 253);" d="M 100.187 620.001 L 223.6 620.001 L 223.6 774.825 L 766.617 774.825 L 766.617 620.001 L 890.03 620.001 C 944.48 620.001 988.76 585.269 988.76 542.59 L 988.76 271.649 C 988.76 228.97 944.48 194.238 890.03 194.238 L 766.617 194.238 L 766.617 0.709 L 223.6 0.709 L 223.6 194.238 L 100.187 194.238 C 45.754 194.238 1.456 228.97 1.456 271.649 L 1.456 542.59 C 1.456 585.269 45.754 620.001 100.187 620.001 Z M 717.252 736.119 L 272.965 736.119 L 272.965 426.472 L 717.252 426.472 L 717.252 736.119 L 717.252 736.119 Z M 272.965 39.414 L 717.252 39.414 L 717.252 194.238 L 272.965 194.238 L 272.965 39.414 Z M 50.822 271.649 C 50.822 250.27 72.92 232.943 100.187 232.943 L 890.03 232.943 C 917.297 232.943 939.395 250.27 939.395 271.649 L 939.395 542.59 C 939.395 563.969 917.297 581.296 890.03 581.296 L 766.617 581.296 L 766.617 426.472 L 815.982 426.472 C 829.623 426.472 840.665 417.815 840.665 407.119 C 840.665 396.424 829.623 387.767 815.982 387.767 L 174.235 387.767 C 160.594 387.767 149.552 396.424 149.552 407.119 C 149.552 417.815 160.594 426.472 174.235 426.472 L 223.6 426.472 L 223.6 581.296 L 100.187 581.296 C 72.92 581.296 50.822 563.969 50.822 542.59 L 50.822 271.649 L 50.822 271.649 Z"/>
  <path style="stroke-width: 1.72; fill: rgb(255, 107, 107);" d="M 618.521 310.355 L 815.982 310.355 C 829.623 310.355 840.665 301.698 840.665 291.002 C 840.665 280.307 829.623 271.649 815.982 271.649 L 618.521 271.649 C 604.88 271.649 593.839 280.307 593.839 291.002 C 593.839 301.698 604.88 310.355 618.521 310.355 Z"/>
  <path d="M 689.85 563.924 L 689.85 461.034 C 689.85 428.693 672.334 402.234 650.925 402.234 L 597.403 402.234 C 597.403 413.995 590.592 424.284 582.807 424.284 C 575.021 424.284 568.209 413.995 568.209 402.234 L 339.524 402.234 C 318.116 402.234 300.599 428.693 300.599 461.034 L 300.599 563.924 C 322.008 563.924 339.524 590.382 339.524 622.721 C 339.524 655.06 322.008 681.518 300.599 681.518 L 300.599 784.408 C 300.599 816.748 318.116 843.207 339.524 843.207 L 568.209 843.207 C 568.209 831.445 575.021 821.158 582.807 821.158 C 590.592 821.158 597.403 831.445 597.403 843.207 L 650.925 843.207 C 672.334 843.207 689.85 816.748 689.85 784.408 L 689.85 681.518 C 668.441 681.518 650.925 655.06 650.925 622.721 C 650.925 590.382 668.441 563.924 689.85 563.924 Z M 582.807 791.761 C 575.021 791.761 568.209 781.471 568.209 769.71 C 568.209 757.953 575.021 747.663 582.807 747.663 C 590.592 747.663 597.403 757.953 597.403 769.71 C 597.403 781.471 590.592 791.761 582.807 791.761 Z M 582.807 718.265 C 575.021 718.265 568.209 707.973 568.209 696.216 C 568.209 684.456 575.021 674.167 582.807 674.167 C 590.592 674.167 597.403 684.456 597.403 696.216 C 597.403 707.973 590.592 718.265 582.807 718.265 Z M 582.807 644.768 C 575.021 644.768 568.209 634.479 568.209 622.721 C 568.209 610.962 575.021 600.672 582.807 600.672 C 590.592 600.672 597.403 610.962 597.403 622.721 C 597.403 634.479 590.592 644.768 582.807 644.768 Z M 582.807 571.274 C 575.021 571.274 568.209 560.983 568.209 549.226 C 568.209 537.467 575.021 527.176 582.807 527.176 C 590.592 527.176 597.403 537.467 597.403 549.226 C 597.403 560.983 590.592 571.274 582.807 571.274 Z M 582.807 497.779 C 575.021 497.779 568.209 487.488 568.209 475.73 C 568.209 463.971 575.021 453.681 582.807 453.681 C 590.592 453.681 597.403 463.971 597.403 475.73 C 597.403 487.488 590.592 497.779 582.807 497.779 Z" fill="#FFA726" style="transform-box: fill-box; transform-origin: 50% 50%;" transform="matrix(0, -1, 1, 0, -0.000011, -0.000015)"/>
  <title>arrow-right</title>
  <desc>Created with Sketch.</desc>
</svg>