<?xml version="1.0" encoding="utf-8"?>
<svg width="800px" height="800px" viewBox="0 0 1024 1024" class="icon" version="1.1" xmlns="http://www.w3.org/2000/svg">
  <path d="M938.666667 426.666667v-149.333334c0-46.933333-38.4-85.333333-85.333334-85.333333h-117.333333c0 17.066667-14.933333 32-32 32s-32-14.933333-32-32H170.666667c-46.933333 0-85.333333 38.4-85.333334 85.333333v149.333334c46.933333 0 85.333333 38.4 85.333334 85.333333s-38.4 85.333333-85.333334 85.333333v149.333334c0 46.933333 38.4 85.333333 85.333334 85.333333h501.333333c0-17.066667 14.933333-32 32-32s32 14.933333 32 32H853.333333c46.933333 0 85.333333-38.4 85.333334-85.333333v-149.333334c-46.933333 0-85.333333-38.4-85.333334-85.333333s38.4-85.333333 85.333334-85.333333zM704 757.333333c-17.066667 0-32-14.933333-32-32s14.933333-32 32-32 32 14.933333 32 32-14.933333 32-32 32z m0-106.666666c-17.066667 0-32-14.933333-32-32s14.933333-32 32-32 32 14.933333 32 32-14.933333 32-32 32z m0-106.666667c-17.066667 0-32-14.933333-32-32s14.933333-32 32-32 32 14.933333 32 32-14.933333 32-32 32z m0-106.666667c-17.066667 0-32-14.933333-32-32s14.933333-32 32-32 32 14.933333 32 32-14.933333 32-32 32z m0-106.666666c-17.066667 0-32-14.933333-32-32s14.933333-32 32-32 32 14.933333 32 32-14.933333 32-32 32z" fill="#FFA726"/>
  <title>arrow-right</title>
  <desc>Created with Sketch.</desc>
  <g id="Vivid.JS" stroke="none" stroke-width="1" fill="none" fill-rule="evenodd" transform="matrix(18.854141, 0, 0, 22.158176, 11.864883, 291.092621)" style="">
    <g id="Shape">
      <polygon points="0 12 20 12 15 17 18 20 28 10 18 0 15 3 20 8 0 8" fill="#FF6E6E" style="fill: rgb(226, 26, 36);"/>
      <g>
        <polygon points="7.894 8 7.894 12 -0.106 12 -0.106 8" style="fill: rgb(16, 91, 166);"/>
      </g>
    </g>
  </g>
</svg>