<?xml version="1.0" encoding="utf-8"?>
<svg width="800px" height="800px" viewBox="0 0 1024 1024" class="icon" version="1.1" xmlns="http://www.w3.org/2000/svg">
  <path d="M938.666667 426.666667v-149.333334c0-46.933333-38.4-85.333333-85.333334-85.333333h-117.333333c0 17.066667-14.933333 32-32 32s-32-14.933333-32-32H170.666667c-46.933333 0-85.333333 38.4-85.333334 85.333333v149.333334c46.933333 0 85.333333 38.4 85.333334 85.333333s-38.4 85.333333-85.333334 85.333333v149.333334c0 46.933333 38.4 85.333333 85.333334 85.333333h501.333333c0-17.066667 14.933333-32 32-32s32 14.933333 32 32H853.333333c46.933333 0 85.333333-38.4 85.333334-85.333333v-149.333334c-46.933333 0-85.333333-38.4-85.333334-85.333333s38.4-85.333333 85.333334-85.333333zM704 757.333333c-17.066667 0-32-14.933333-32-32s14.933333-32 32-32 32 14.933333 32 32-14.933333 32-32 32z m0-106.666666c-17.066667 0-32-14.933333-32-32s14.933333-32 32-32 32 14.933333 32 32-14.933333 32-32 32z m0-106.666667c-17.066667 0-32-14.933333-32-32s14.933333-32 32-32 32 14.933333 32 32-14.933333 32-32 32z m0-106.666667c-17.066667 0-32-14.933333-32-32s14.933333-32 32-32 32 14.933333 32 32-14.933333 32-32 32z m0-106.666666c-17.066667 0-32-14.933333-32-32s14.933333-32 32-32 32 14.933333 32 32-14.933333 32-32 32z" fill="#FFA726"/>
  <g id="Layer_1" transform="matrix(-1.080986, 0, 0, 1.035211, 1410.661865, -406.877289)" style="">
    <path style="fill: rgb(255, 189, 66); stroke-width: 1;" d="M 801.051 879.854 L 800.229 880.676 L 768.612 1009.43 C 766.842 1016.64 768.967 1024.25 774.216 1029.5 L 862.458 941.26 L 801.051 879.854 Z"/>
    <path style="fill: rgb(48, 118, 122); stroke-width: 1;" d="M 1270.6 610.535 L 1193.18 533.12 C 1180.64 520.584 1160.32 520.584 1147.79 533.12 L 1079.18 601.726 L 1069.1 611.804 L 800.229 880.675 L 768.612 1009.43 C 766.842 1016.64 768.967 1024.25 774.216 1029.5 C 779.465 1034.75 787.074 1036.88 794.284 1035.11 L 923.043 1003.49 L 1191.92 734.616 L 1201.99 724.538 L 1270.6 655.932 C 1283.13 643.395 1283.13 623.071 1270.6 610.535 Z"/>
    <path style="fill: rgb(0, 112, 102); stroke-width: 1;" d="M 1193.18 533.12 C 1180.64 520.584 1160.32 520.584 1147.79 533.12 L 1079.18 601.726 L 1069.1 611.804 L 800.229 880.675 L 768.612 1009.43 C 766.842 1016.64 768.967 1024.25 774.216 1029.5 L 1231.89 571.828 L 1193.18 533.12 Z"/>
    <path style="fill: rgb(74, 182, 191); stroke-width: 1;" d="M 1193.18 533.12 C 1180.64 520.584 1160.32 520.584 1147.79 533.12 L 1079.18 601.726 L 1069.1 611.804 L 800.229 880.675 L 768.612 1009.43 C 766.842 1016.64 768.967 1024.25 774.216 1029.5 L 1231.89 571.828 L 1193.18 533.12 Z"/>
    <path style="fill: rgb(148, 0, 9); stroke-width: 1;" d="M 1234.26 692.265 L 1270.6 655.931 C 1283.13 643.395 1283.13 623.071 1270.6 610.535 L 1193.18 533.12 C 1180.64 520.584 1160.32 520.584 1147.79 533.12 L 1111.45 569.454 L 1234.26 692.265 Z"/>
    <path style="fill: rgb(255, 0, 41); stroke-width: 1;" d="M 1231.89 571.828 L 1193.18 533.12 C 1180.64 520.584 1160.32 520.584 1147.79 533.12 L 1111.45 569.454 L 1172.86 630.861 L 1231.89 571.828 Z"/>
    <path style="fill: rgb(247, 220, 77); stroke-width: 1;" d="M 801.051 879.854 L 800.229 880.676 L 768.612 1009.43 C 766.842 1016.64 768.967 1024.25 774.216 1029.5 C 779.465 1034.75 787.074 1036.88 794.284 1035.11 L 923.043 1003.49 L 923.865 1002.67 L 801.051 879.854 Z"/>
    <rect x="297.71" y="90.414" transform="matrix(-0.707107, -0.707107, 0.707107, -0.707107, 1334.366089, 1013.187073)" style="fill: rgb(255, 152, 0); stroke-width: 1;" width="173.683" height="74.041"/>
    <polygon style="fill: rgb(247, 220, 77); stroke-width: 1;" points="1178.73 624.983 1117.33 563.578 1079.18 601.725 1069.1 611.803 1064.97 615.935 1126.38 677.34"/>
    <path style="fill: rgb(45, 43, 39); stroke-width: 1;" d="M 779.137 966.573 L 768.613 1009.43 C 766.843 1016.64 768.968 1024.25 774.217 1029.5 C 779.466 1034.75 787.075 1036.88 794.285 1035.11 L 837.145 1024.58 L 779.137 966.573 Z"/>
    <path style="fill: rgb(64, 62, 59); stroke-width: 1;" d="M 779.137 966.573 L 768.613 1009.43 C 766.843 1016.64 768.968 1024.25 774.217 1029.5 L 808.142 995.576 L 779.137 966.573 Z"/>
  </g>
</svg>