<?xml version="1.0" encoding="utf-8"?>
<svg width="800px" height="800px" viewBox="0 0 1024 1024" class="icon" version="1.1" xmlns="http://www.w3.org/2000/svg">
  <path d="M938.666667 426.666667v-149.333334c0-46.933333-38.4-85.333333-85.333334-85.333333h-117.333333c0 17.066667-14.933333 32-32 32s-32-14.933333-32-32H170.666667c-46.933333 0-85.333333 38.4-85.333334 85.333333v149.333334c46.933333 0 85.333333 38.4 85.333334 85.333333s-38.4 85.333333-85.333334 85.333333v149.333334c0 46.933333 38.4 85.333333 85.333334 85.333333h501.333333c0-17.066667 14.933333-32 32-32s32 14.933333 32 32H853.333333c46.933333 0 85.333333-38.4 85.333334-85.333333v-149.333334c-46.933333 0-85.333333-38.4-85.333334-85.333333s38.4-85.333333 85.333334-85.333333zM704 757.333333c-17.066667 0-32-14.933333-32-32s14.933333-32 32-32 32 14.933333 32 32-14.933333 32-32 32z m0-106.666666c-17.066667 0-32-14.933333-32-32s14.933333-32 32-32 32 14.933333 32 32-14.933333 32-32 32z m0-106.666667c-17.066667 0-32-14.933333-32-32s14.933333-32 32-32 32 14.933333 32 32-14.933333 32-32 32z m0-106.666667c-17.066667 0-32-14.933333-32-32s14.933333-32 32-32 32 14.933333 32 32-14.933333 32-32 32z m0-106.666666c-17.066667 0-32-14.933333-32-32s14.933333-32 32-32 32 14.933333 32 32-14.933333 32-32 32z" fill="#FFA726"/>
  <g id="Layer_1" style="" transform="matrix(0.519881, 0, 0, 0.46189, -391.573547, 87.333542)">
    <g transform="matrix(2.608266, 0, 0, 2.608266, 895.27124, -8.156079)">
      <path style="fill:#194F82;" d="M382.488,286.384c-3.62-3.62-9.438-4.267-13.77-1.422c-30.19,20.105-65.552,30.707-102.077,30.707 c-45.64,0-88.76-16.485-122.634-46.61l23.725-23.725c7.37-8.21,1.487-18.166-7.758-18.618H40.96 c-6.012,0-10.925,4.848-10.925,10.925v118.95c0.517,10.279,12.024,14.222,18.618,7.758l24.76-24.76 c37.947,34.263,86.626,53.01,138.085,53.01c55.143,0,125.285-23.014,172.154-92.444 C386.69,295.822,386.108,290.069,382.488,286.384z M211.692,370.747c-49.325,0-95.741-19.265-130.586-54.109 c-4.073-4.073-11.378-4.073-15.451,0L51.95,330.343v-81.842h81.778l-13.059,13.059c-4.202,4.59-4.461,10.99,0,15.451 c39.046,39.047,90.893,60.509,146.036,60.509c21.85,0,43.378-3.426,63.806-10.02C297.219,355.426,255.651,370.747,211.692,370.747z "/>
      <path style="fill:#194F82;" d="M248.605,123.475L224.88,147.2c-7.37,8.21-1.487,18.166,7.758,18.618h119.014 c6.012,0,10.925-4.848,10.925-10.925V35.943c-0.517-10.279-12.024-14.222-18.618-7.758l-24.76,24.76 C281.122,18.683,232.508,0,180.985,0C125.841,0,55.829,23.014,8.831,92.444c-2.909,4.331-2.327,10.02,1.422,13.77 c3.62,3.62,9.438,4.267,13.77,1.422C54.213,87.531,89.575,76.929,126.1,76.929C171.611,76.865,214.795,93.349,248.605,123.475z M180.92,21.786c49.325,0,95.741,19.265,130.586,54.109c4.073,4.073,11.378,4.073,15.451,0l13.705-13.705v81.778h-81.778 l13.059-13.059c4.202-4.59,4.461-10.99,0-15.451c-39.046-39.046-90.893-60.509-146.036-60.509c-21.851,0-43.378,3.426-63.806,10.02 C95.393,37.107,136.96,21.786,180.92,21.786z"/>
    </g>
    <path style="fill: rgb(255, 193, 13); stroke-width: 2.608;" d="M 1783.81 154.222 L 1748.06 189.968 C 1737.44 200.591 1718.38 200.591 1707.76 189.968 C 1616.88 99.085 1495.81 48.837 1367.16 48.837 C 1252.5 48.837 1143.91 88.462 1057.24 161.639 C 1110.52 144.271 1166.51 135.505 1223.66 135.505 C 1367.49 135.505 1502.89 191.486 1604.57 293.328 C 1616.2 304.794 1615.53 321.487 1604.57 333.629 L 1570.5 367.52 L 1783.8 367.52 L 1783.81 154.222 Z"/>
    <path style="fill: rgb(86, 172, 224); stroke-width: 2.608;" d="M 1106.65 817.72 C 1197.53 908.603 1318.6 958.851 1447.25 958.851 C 1561.91 958.851 1670.5 919.226 1757.16 846.046 C 1703.88 863.414 1647.9 872.181 1590.74 872.181 C 1446.91 872.181 1311.51 816.199 1209.84 714.357 C 1198.21 702.891 1198.88 686.198 1209.84 674.057 L 1243.9 639.995 L 1030.77 639.995 L 1030.77 853.294 L 1066.52 817.548 C 1077.14 807.099 1096.02 807.099 1106.65 817.72 Z"/>
  </g>
</svg>