<?xml version="1.0" encoding="utf-8"?>
<svg width="800px" height="800px" viewBox="0 0 1024 1024" class="icon" version="1.1" xmlns="http://www.w3.org/2000/svg">
  <path d="M938.666667 426.666667v-149.333334c0-46.933333-38.4-85.333333-85.333334-85.333333h-117.333333c0 17.066667-14.933333 32-32 32s-32-14.933333-32-32H170.666667c-46.933333 0-85.333333 38.4-85.333334 85.333333v149.333334c46.933333 0 85.333333 38.4 85.333334 85.333333s-38.4 85.333333-85.333334 85.333333v149.333334c0 46.933333 38.4 85.333333 85.333334 85.333333h501.333333c0-17.066667 14.933333-32 32-32s32 14.933333 32 32H853.333333c46.933333 0 85.333333-38.4 85.333334-85.333333v-149.333334c-46.933333 0-85.333333-38.4-85.333334-85.333333s38.4-85.333333 85.333334-85.333333zM704 757.333333c-17.066667 0-32-14.933333-32-32s14.933333-32 32-32 32 14.933333 32 32-14.933333 32-32 32z m0-106.666666c-17.066667 0-32-14.933333-32-32s14.933333-32 32-32 32 14.933333 32 32-14.933333 32-32 32z m0-106.666667c-17.066667 0-32-14.933333-32-32s14.933333-32 32-32 32 14.933333 32 32-14.933333 32-32 32z m0-106.666667c-17.066667 0-32-14.933333-32-32s14.933333-32 32-32 32 14.933333 32 32-14.933333 32-32 32z m0-106.666666c-17.066667 0-32-14.933333-32-32s14.933333-32 32-32 32 14.933333 32 32-14.933333 32-32 32z" fill="#FFA726"/>
  <path fill="#34495E" d="M 313.193 372.335 C 313.193 372.335 84.699 372.488 84.945 372.537 C 85.044 376.788 84.945 392.303 84.945 392.303 L 313.188 505.587 L 541.435 392.303 C 541.435 392.303 541.229 376.586 541.389 372.709 C 540.851 371.756 313.193 372.335 313.193 372.335 Z" style="stroke-width: 10.236;"/>
  <path fill="#ECF0F1" d="M 313.193 141.51 C 313.193 141.51 84.699 141.663 84.945 141.712 C 85.044 145.963 84.945 372.665 84.945 372.665 L 313.193 485.945 L 541.44 372.665 C 541.44 372.665 541.417 145.766 541.572 141.889 C 541.051 140.926 313.193 141.51 313.193 141.51 Z" style="stroke-width: 10.236;"/>
  <path fill="#2C3E50" d="M 84.945 372.537 C 85.044 376.788 84.945 392.303 84.945 392.303 L 313.188 505.587 L 313.188 372.335 C 313.193 372.335 84.693 372.493 84.945 372.537 Z" style="stroke-width: 10.236;"/>
  <path fill="#BDC3C7" d="M 84.945 141.712 C 85.044 145.963 84.945 372.665 84.945 372.665 L 313.193 485.945 L 313.193 141.51 C 313.193 141.51 84.693 141.663 84.945 141.712 Z" style="stroke-width: 10.236;"/>
  <path fill="#BDC3C7" d="M 313.193 131.859 C 313.193 131.859 72.994 132.011 73.24 132.06 C 73.346 136.311 73.24 151.826 73.24 151.826 L 313.188 270.019 L 553.132 151.826 C 553.132 151.826 552.943 136.109 553.086 132.232 C 552.56 131.274 313.193 131.859 313.193 131.859 Z" style="stroke-width: 10.236;"/>
  <path fill="#95A5A6" d="M 348.488 284.109 L 389.538 264.461 L 389.538 328.308 L 348.488 347.946 L 348.488 284.109 Z M 407.139 254.638 L 448.194 234.99 L 448.194 298.842 L 407.139 318.48 L 407.139 254.638 Z M 73.258 151.83 L 312.537 269.695 L 313.188 269.695 L 313.188 132.178 L 73.258 132.178 L 73.258 133.244 C 73.305 136.969 73.275 144.429 73.258 148.68 L 73.258 151.83 Z M 465.789 225.172 L 506.857 205.529 L 506.857 269.371 L 465.789 289.014 L 465.789 225.172 Z M 348.488 367.652 L 389.538 348.005 L 389.538 411.852 L 348.488 431.499 L 348.488 367.652 Z M 465.789 308.71 L 506.857 289.067 L 506.857 352.914 L 465.789 372.557 L 465.789 308.71 Z" style="stroke-width: 10.236;"/>
  <path fill="#2C3E50" d="M 407.18 372.596 L 448.236 352.953 L 448.236 438.566 L 407.18 458.94 L 407.18 372.596 Z" style="stroke-width: 10.236;"/>
  <path fill="#C0392C" d="M 407.18 338.196 L 448.236 318.553 L 448.236 338.171 L 407.18 357.814 L 407.18 338.196 Z" style="stroke-width: 10.236;"/>
  <path fill="#ECF0F1" d="M 313.193 13.984 L 73.059 132.178 L 313.193 250.372 L 553.693 132.178 L 313.193 13.984 Z" style="stroke-width: 10.236;"/>
  <path fill="#D48A6D" d="M 313.193 33.783 L 108.172 132.178 L 313.193 230.572 L 518.217 132.178 L 313.193 33.783 Z" style="stroke-width: 10.236;"/>
  <path fill="#7F8C8D" d="M 278.08 284.261 L 237.119 264.614 L 237.119 328.461 L 278.08 348.098 L 278.08 284.261 Z M 219.559 254.79 L 178.597 235.143 L 178.597 298.999 L 219.559 318.637 L 219.559 254.79 Z M 161.037 225.324 L 120.075 205.676 L 120.075 269.518 L 161.037 289.166 L 161.037 225.324 Z M 278.08 367.751 L 237.119 348.113 L 237.119 411.95 L 278.08 431.597 L 278.08 367.751 Z M 219.559 338.284 L 178.597 318.647 L 178.597 382.483 L 219.559 402.131 L 219.559 338.284 Z M 161.037 308.818 L 120.075 289.171 L 120.075 353.017 L 161.037 372.665 L 161.037 308.818 Z" style="stroke-width: 10.236;"/>
  <path fill="#BDC3C7" d="M 506.857 233.153 L 465.789 254.638 L 465.789 264.461 L 506.857 242.976 L 506.857 233.153 Z M 506.857 316.696 L 465.789 338.181 L 465.789 348.005 L 506.857 326.514 L 506.857 316.696 Z M 448.194 262.618 L 407.139 284.109 L 407.139 293.928 L 448.194 272.438 L 448.194 262.618 Z M 389.538 292.085 L 348.488 313.575 L 348.488 323.394 L 389.538 301.913 L 389.538 292.085 Z M 389.538 375.628 L 348.488 397.118 L 348.488 406.937 L 389.538 385.457 L 389.538 375.628 Z" style="stroke-width: 10.236;"/>
  <path fill="#95A5A6" d="M 237.119 292.242 L 237.119 302.071 L 278.08 323.551 L 278.08 313.732 L 237.119 292.242 Z M 237.119 375.736 L 237.119 385.555 L 278.08 407.046 L 278.08 397.217 L 237.119 375.736 Z M 178.597 346.27 L 178.597 356.089 L 219.559 377.579 L 219.559 367.751 L 178.597 346.27 Z M 178.597 262.771 L 178.597 272.59 L 219.559 294.085 L 219.559 284.261 L 178.597 262.771 Z M 120.058 316.794 L 120.058 326.613 L 161.037 348.113 L 161.037 338.284 L 120.058 316.794 Z M 120.058 233.295 L 120.058 243.119 L 161.037 264.614 L 161.037 254.79 L 120.058 233.295 Z" style="stroke-width: 10.236;"/>
  <path fill="#AA6F57" d="M 313.193 43.612 L 507.974 137.092 L 518.217 132.178 L 313.193 33.783 L 108.172 132.178 L 118.411 137.092 L 313.193 43.612 Z" style="stroke-width: 10.236;"/>
</svg>