<?xml version="1.0" encoding="utf-8"?><!-- Uploaded to: SVG Repo, www.svgrepo.com, Generator: SVG Repo Mixer Tools -->
<svg fill="#000000" width="800px" height="800px" viewBox="0 0 24 24" id="ticket" data-name="Line Color" xmlns="http://www.w3.org/2000/svg" class="icon line-color"><path id="secondary" d="M10,5V7m0,10v2m0-6V11" style="fill: none; stroke: rgb(44, 169, 188); stroke-linecap: round; stroke-linejoin: round; stroke-width: 2;"></path><path id="primary" d="M18,12a3,3,0,0,0,3,3v3a1,1,0,0,1-1,1H4a1,1,0,0,1-1-1V15A3,3,0,0,0,3,9V6A1,1,0,0,1,4,5H20a1,1,0,0,1,1,1V9A3,3,0,0,0,18,12Z" style="fill: none; stroke: rgb(0, 0, 0); stroke-linecap: round; stroke-linejoin: round; stroke-width: 2;"></path></svg>