<?xml version="1.0" encoding="utf-8"?>
<svg width="800px" height="800px" viewBox="0 0 1024 1024" class="icon" version="1.1" xmlns="http://www.w3.org/2000/svg">
  <path d="M938.666667 426.666667v-149.333334c0-46.933333-38.4-85.333333-85.333334-85.333333h-117.333333c0 17.066667-14.933333 32-32 32s-32-14.933333-32-32H170.666667c-46.933333 0-85.333333 38.4-85.333334 85.333333v149.333334c46.933333 0 85.333333 38.4 85.333334 85.333333s-38.4 85.333333-85.333334 85.333333v149.333334c0 46.933333 38.4 85.333333 85.333334 85.333333h501.333333c0-17.066667 14.933333-32 32-32s32 14.933333 32 32H853.333333c46.933333 0 85.333333-38.4 85.333334-85.333333v-149.333334c-46.933333 0-85.333333-38.4-85.333334-85.333333s38.4-85.333333 85.333334-85.333333zM704 757.333333c-17.066667 0-32-14.933333-32-32s14.933333-32 32-32 32 14.933333 32 32-14.933333 32-32 32z m0-106.666666c-17.066667 0-32-14.933333-32-32s14.933333-32 32-32 32 14.933333 32 32-14.933333 32-32 32z m0-106.666667c-17.066667 0-32-14.933333-32-32s14.933333-32 32-32 32 14.933333 32 32-14.933333 32-32 32z m0-106.666667c-17.066667 0-32-14.933333-32-32s14.933333-32 32-32 32 14.933333 32 32-14.933333 32-32 32z m0-106.666666c-17.066667 0-32-14.933333-32-32s14.933333-32 32-32 32 14.933333 32 32-14.933333 32-32 32z" fill="#FFA726"/>
  <title>arrow-right</title>
  <desc>Created with Sketch.</desc>
  <path id="list" d="M 366.054 500.636 C 323.176 500.535 280.41 496.541 238.358 488.711 C 222.139 484.196 206.956 476.897 193.584 467.187 C 191.059 465.032 189.338 462.175 188.674 459.036 C 188.424 456.313 189.564 453.638 191.749 451.826 C 199.516 444.549 228.09 439.557 234.003 439.345 C 321.583 438.894 410.61 438.885 498.177 439.345 C 504.102 439.585 532.663 444.578 540.438 451.826 C 542.622 453.636 543.758 456.307 543.513 459.027 C 542.856 462.169 541.14 465.027 538.6 467.178 C 525.233 476.892 510.05 484.191 493.832 488.701 C 451.859 496.519 409.184 500.516 366.399 500.636 L 366.054 500.636 Z M 39.859 453.67 C 39.623 428.469 68.596 412.478 92.01 424.887 C 115.427 437.295 115.722 468.796 92.543 481.588 C 87.168 484.555 81.044 486.12 74.806 486.12 C 55.602 486.173 39.973 471.66 39.859 453.67 Z M 39.859 319.069 C 39.623 293.869 68.596 277.878 92.01 290.286 C 115.427 302.694 115.722 334.195 92.543 346.988 C 87.168 349.955 81.044 351.518 74.806 351.52 C 55.602 351.572 39.973 337.06 39.859 319.069 Z M 229.544 340.191 C 223.396 339.519 193.071 331.55 183.827 323.169 C 178.248 319.381 178.248 311.595 183.827 307.807 C 193.05 299.388 223.425 291.487 229.544 290.785 C 320.336 282.611 411.758 282.611 502.543 290.785 C 508.703 291.458 539.012 299.426 548.258 307.807 C 553.839 311.595 553.839 319.381 548.258 323.169 C 539.046 331.588 508.67 339.49 502.543 340.18 C 456.972 344.265 411.446 346.306 365.965 346.306 C 320.495 346.306 275.023 344.268 229.555 340.191 L 229.544 340.191 Z M 39.859 169.972 C 39.623 144.772 68.596 128.78 92.01 141.188 C 115.427 153.597 115.722 185.098 92.543 197.891 C 87.168 200.857 81.044 202.421 74.806 202.421 C 55.59 202.501 39.943 187.973 39.859 169.972 Z M 233.971 191.62 C 228.059 191.38 199.486 186.389 191.718 179.14 C 189.534 177.329 188.393 174.654 188.644 171.931 C 189.308 168.792 191.029 165.935 193.553 163.78 C 206.925 154.068 222.107 146.77 238.327 142.255 C 322.593 126.326 409.408 126.326 493.664 142.255 C 509.895 146.766 525.077 154.064 538.445 163.78 C 540.973 165.935 542.688 168.792 543.357 171.931 C 543.602 174.65 542.465 177.32 540.283 179.131 C 532.518 186.418 503.957 191.4 498.043 191.611 C 454.255 191.832 410.11 191.937 365.953 191.937 C 321.81 191.937 277.722 191.832 233.982 191.611 L 233.971 191.62 Z" fill="#2d5be2" style="stroke-width: 20.473;"/>
</svg>